<svg width="1200" height="600" viewBox="0 0 1200 600" xmlns="http://www.w3.org/2000/svg" font-family="-apple-system, BlinkMacSystemFont, 'Segoe UI', Roboto, Helvetica, Arial, sans-serif">
  <defs>
    <linearGradient id="bg" x1="0" y1="0" x2="1" y2="1">
      <stop offset="0" stop-color="#0b1220"/>
      <stop offset="0.55" stop-color="#7f1d1d"/>
      <stop offset="1" stop-color="#dc2626"/>
    </linearGradient>
  </defs>
  <rect width="1200" height="600" rx="24" fill="url(#bg)"/>
  <circle cx="1020" cy="150" r="205" fill="#ffffff" fill-opacity="0.05">
    <animate attributeName="r" values="205;226;205" dur="8s" repeatCount="indefinite"/>
  </circle>
  <circle cx="160" cy="560" r="150" fill="#ffffff" fill-opacity="0.05"/>

  <g transform="translate(1005,256)">
    <path d="M0 -112 L96 -76 L96 12 C96 82 50 122 0 142 C-50 122 -96 82 -96 12 L-96 -76 Z" fill="#ffffff" fill-opacity="0.12" stroke="#ffffff" stroke-opacity="0.5" stroke-width="4"/>
    <circle cx="0" cy="2" r="118" fill="none" stroke="#ffffff" stroke-opacity="0.2" stroke-width="3"/>
    <g>
      <animateTransform attributeName="transform" type="rotate" from="0 0 0" to="360 0 0" dur="4s" repeatCount="indefinite"/>
      <path d="M0 0 L0 -116 A116 116 0 0 1 82 -82 Z" fill="#fca5a5" fill-opacity="0.4"/>
    </g>
    <path d="M-36 6 L-8 36 L42 -30" fill="none" stroke="#ffffff" stroke-width="15" stroke-linecap="round" stroke-linejoin="round"/>
  </g>

  <text x="80" y="112" fill="#fecaca" font-size="25" font-weight="700" letter-spacing="4">SECURITY · MACHINE LEARNING</text>
  <text x="74" y="250" fill="#ffffff" font-size="90" font-weight="800" letter-spacing="-2">PhishFence</text>
  <text x="80" y="320" fill="#fee2e2" font-size="35" font-weight="600">Detects and blocks phishing in real time</text>
  <text x="80" y="366" fill="#fecaca" font-size="26">WHOIS, typosquatting and visual similarity, fused with ML.</text>

  <g font-size="23" font-weight="700">
    <rect x="80" y="420" width="160" height="54" rx="27" fill="#ffffff" fill-opacity="0.16"/>
    <text x="160" y="455" fill="#ffffff" text-anchor="middle">LightGBM</text>
    <rect x="256" y="420" width="180" height="54" rx="27" fill="#ffffff" fill-opacity="0.16"/>
    <text x="346" y="455" fill="#ffffff" text-anchor="middle">Selenium</text>
    <rect x="452" y="420" width="230" height="54" rx="27" fill="#ffffff" fill-opacity="0.16"/>
    <text x="567" y="455" fill="#ffffff" text-anchor="middle">Chrome Extension</text>
  </g>
</svg>
