<svg width="1200" height="600" viewBox="0 0 1200 600" xmlns="http://www.w3.org/2000/svg" font-family="-apple-system, BlinkMacSystemFont, 'Segoe UI', Roboto, Helvetica, Arial, sans-serif">
  <defs>
    <linearGradient id="bg" x1="0" y1="0" x2="1" y2="1">
      <stop offset="0" stop-color="#312e81"/>
      <stop offset="0.55" stop-color="#6d28d9"/>
      <stop offset="1" stop-color="#4f46e5"/>
    </linearGradient>
  </defs>
  <rect width="1200" height="600" rx="24" fill="url(#bg)"/>
  <circle cx="1020" cy="150" r="205" fill="#ffffff" fill-opacity="0.06">
    <animate attributeName="r" values="205;226;205" dur="9s" repeatCount="indefinite"/>
  </circle>
  <circle cx="170" cy="560" r="150" fill="#ffffff" fill-opacity="0.05"/>

  <g stroke="#ffffff" stroke-opacity="0.45" stroke-width="3">
    <line x1="920" y1="185" x2="1045" y2="255"/>
    <line x1="1045" y1="255" x2="960" y2="365"/>
    <line x1="1045" y1="255" x2="1145" y2="320"/>
    <line x1="920" y1="185" x2="960" y2="365"/>
  </g>
  <g fill="#ffffff">
    <circle cx="920" cy="185" r="20"><animate attributeName="r" values="20;27;20" dur="3s" repeatCount="indefinite"/></circle>
    <circle cx="1045" cy="255" r="28" fill="#ddd6fe"><animate attributeName="r" values="28;34;28" dur="3.6s" repeatCount="indefinite"/></circle>
    <circle cx="960" cy="365" r="18"><animate attributeName="r" values="18;24;18" dur="2.6s" repeatCount="indefinite"/></circle>
    <circle cx="1145" cy="320" r="16"><animate attributeName="r" values="16;22;16" dur="3.2s" repeatCount="indefinite"/></circle>
  </g>

  <text x="80" y="112" fill="#ddd6fe" font-size="25" font-weight="700" letter-spacing="5">OPEN SOURCE · PyPI</text>
  <text x="74" y="252" fill="#ffffff" font-size="104" font-weight="800" letter-spacing="-2">relfair</text>
  <text x="80" y="322" fill="#ede9fe" font-size="35" font-weight="600">Relationship-aware fairness testing for ML</text>
  <text x="80" y="368" fill="#c7d2fe" font-size="26">Counterfactuals that catch what naive flip-testing misses.</text>

  <g font-size="23" font-weight="700">
    <rect x="80" y="422" width="180" height="54" rx="27" fill="#ffffff" fill-opacity="0.16"/>
    <text x="170" y="457" fill="#ffffff" text-anchor="middle">Python</text>
    <rect x="276" y="422" width="180" height="54" rx="27" fill="#ffffff" fill-opacity="0.16"/>
    <text x="366" y="457" fill="#ffffff" text-anchor="middle">Fairness</text>
    <rect x="472" y="422" width="130" height="54" rx="27" fill="#ffffff" fill-opacity="0.16"/>
    <text x="537" y="457" fill="#ffffff" text-anchor="middle">PyPI</text>
  </g>
</svg>
