<svg width="1200" height="600" viewBox="0 0 1200 600" xmlns="http://www.w3.org/2000/svg" font-family="-apple-system, BlinkMacSystemFont, 'Segoe UI', Roboto, Helvetica, Arial, sans-serif">
  <defs>
    <linearGradient id="bg" x1="0" y1="0" x2="1" y2="1">
      <stop offset="0" stop-color="#064e3b"/>
      <stop offset="0.55" stop-color="#16a34a"/>
      <stop offset="1" stop-color="#4ade80"/>
    </linearGradient>
  </defs>
  <rect width="1200" height="600" rx="24" fill="url(#bg)"/>
  <circle cx="1020" cy="150" r="210" fill="#ffffff" fill-opacity="0.07">
    <animate attributeName="r" values="210;230;210" dur="9s" repeatCount="indefinite"/>
  </circle>
  <circle cx="170" cy="560" r="150" fill="#ffffff" fill-opacity="0.05"/>

  <g>
    <animateTransform attributeName="transform" type="translate" values="0 0;0 -14;0 0" dur="6s" repeatCount="indefinite"/>
    <path d="M1010 320 C1010 215 1075 150 1160 142 C1150 232 1090 300 1010 320 Z" fill="#ffffff" fill-opacity="0.92"/>
    <path d="M1010 320 C1010 250 968 192 892 178 C902 252 944 305 1010 320 Z" fill="#ffffff" fill-opacity="0.74"/>
    <path d="M1010 318 L1010 392" stroke="#ffffff" stroke-opacity="0.85" stroke-width="8"/>
    <path d="M928 392 L1010 392 L1010 462" stroke="#ffffff" stroke-opacity="0.85" stroke-width="24" fill="none" stroke-linecap="round" stroke-linejoin="round"/>
  </g>

  <text x="80" y="112" fill="#bbf7d0" font-size="25" font-weight="700" letter-spacing="5">GREEN SOFTWARE FOUNDATION</text>
  <text x="76" y="250" fill="#ffffff" font-size="96" font-weight="800" letter-spacing="-2">GreenPipe</text>
  <text x="80" y="320" fill="#dcfce7" font-size="35" font-weight="600">The first GitLab Duo Agent on GSF standards</text>
  <text x="80" y="366" fill="#bbf7d0" font-size="26">Carbon-aware scheduling with AI urgency classification.</text>

  <g font-size="23" font-weight="700">
    <rect x="80" y="420" width="92" height="54" rx="27" fill="#ffffff" fill-opacity="0.16"/>
    <text x="126" y="455" fill="#ffffff" text-anchor="middle">SCI</text>
    <rect x="188" y="420" width="250" height="54" rx="27" fill="#ffffff" fill-opacity="0.16"/>
    <text x="313" y="455" fill="#ffffff" text-anchor="middle">Carbon Aware SDK</text>
    <rect x="454" y="420" width="240" height="54" rx="27" fill="#ffffff" fill-opacity="0.16"/>
    <text x="574" y="455" fill="#ffffff" text-anchor="middle">Impact Framework</text>
  </g>
</svg>
