<svg width="1200" height="600" viewBox="0 0 1200 600" xmlns="http://www.w3.org/2000/svg" font-family="-apple-system, BlinkMacSystemFont, 'Segoe UI', Roboto, Helvetica, Arial, sans-serif">
  <defs>
    <linearGradient id="bg" x1="0" y1="0" x2="1" y2="1">
      <stop offset="0" stop-color="#064e3b"/>
      <stop offset="0.55" stop-color="#047857"/>
      <stop offset="1" stop-color="#10b981"/>
    </linearGradient>
  </defs>
  <rect width="1200" height="600" rx="24" fill="url(#bg)"/>
  <circle cx="1030" cy="150" r="205" fill="#ffffff" fill-opacity="0.07">
    <animate attributeName="r" values="205;226;205" dur="9s" repeatCount="indefinite"/>
  </circle>
  <circle cx="160" cy="560" r="150" fill="#ffffff" fill-opacity="0.05"/>

  <g transform="translate(865,160)">
    <rect x="0" y="0" width="252" height="150" rx="26" fill="#ffffff" fill-opacity="0.95"/>
    <path d="M44 148 L44 196 L92 148 Z" fill="#ffffff" fill-opacity="0.95"/>
    <g fill="#047857">
      <circle cx="72" cy="76" r="14"><animate attributeName="opacity" values="0.3;1;0.3" dur="1.2s" begin="0s" repeatCount="indefinite"/></circle>
      <circle cx="126" cy="76" r="14"><animate attributeName="opacity" values="0.3;1;0.3" dur="1.2s" begin="0.2s" repeatCount="indefinite"/></circle>
      <circle cx="180" cy="76" r="14"><animate attributeName="opacity" values="0.3;1;0.3" dur="1.2s" begin="0.4s" repeatCount="indefinite"/></circle>
    </g>
  </g>
  <g transform="translate(975,358)" stroke="#ffffff" stroke-width="11" fill="none" stroke-linejoin="round" stroke-linecap="round" stroke-opacity="0.9">
    <path d="M0 62 L72 0 L144 62"/>
    <path d="M22 56 L22 122 L122 122 L122 56"/>
  </g>

  <text x="80" y="112" fill="#a7f3d0" font-size="25" font-weight="700" letter-spacing="5">AGENTIC AI · FULL-STACK</text>
  <text x="74" y="262" fill="#ffffff" font-size="118" font-weight="800" letter-spacing="-2">Keya</text>
  <text x="80" y="332" fill="#d1fae5" font-size="35" font-weight="600">The smartest way to find your next home</text>
  <text x="80" y="378" fill="#a7f3d0" font-size="26">Conversational real-estate assistant, Next.js and FastAPI.</text>

  <g font-size="23" font-weight="700">
    <rect x="80" y="430" width="160" height="54" rx="27" fill="#ffffff" fill-opacity="0.16"/>
    <text x="160" y="465" fill="#ffffff" text-anchor="middle">Next.js</text>
    <rect x="256" y="430" width="160" height="54" rx="27" fill="#ffffff" fill-opacity="0.16"/>
    <text x="336" y="465" fill="#ffffff" text-anchor="middle">FastAPI</text>
    <rect x="432" y="430" width="150" height="54" rx="27" fill="#ffffff" fill-opacity="0.16"/>
    <text x="507" y="465" fill="#ffffff" text-anchor="middle">OpenAI</text>
  </g>
</svg>
