<svg width="1200" height="630" viewBox="0 0 1200 630" xmlns="http://www.w3.org/2000/svg" role="img" aria-label="Archit Rathod on GitHub: github.com/Archit1706">
  <!-- MIDNIGHT ATLAS - GitHub link thumbnail for the LinkedIn Featured section (1200x630, 1.91:1).
       Static on purpose: this file is exported to PNG before upload. -->
  <defs>
    <linearGradient id="ink" x1="0" y1="0" x2="0" y2="1">
      <stop offset="0" stop-color="#0a0e1a"/>
      <stop offset="1" stop-color="#0d1322"/>
    </linearGradient>
    <radialGradient id="glow" cx="0.5" cy="0.5" r="0.5">
      <stop offset="0" stop-color="#e3a857" stop-opacity="0.09"/>
      <stop offset="1" stop-color="#e3a857" stop-opacity="0"/>
    </radialGradient>
  </defs>

  <rect width="1200" height="630" fill="url(#ink)"/>

  <!-- graticule -->
  <g stroke="#eae7db" stroke-opacity="0.045" stroke-width="1">
    <path d="M100 0V630M200 0V630M300 0V630M400 0V630M500 0V630M600 0V630M700 0V630M800 0V630M900 0V630M1000 0V630M1100 0V630"/>
    <path d="M0 105H1200M0 210H1200M0 315H1200M0 420H1200M0 525H1200"/>
  </g>

  <!-- bathymetric contours, bottom -->
  <g fill="none" stroke="#8fd6c5" stroke-opacity="0.10" stroke-width="1">
    <path d="M0 560 C 220 528, 420 548, 640 520 C 880 490, 1060 516, 1200 492"/>
    <path d="M0 596 C 240 568, 460 584, 700 558 C 940 534, 1100 552, 1200 534"/>
  </g>
  <path d="M0 524 C 230 488, 440 512, 680 480 C 920 448, 1080 472, 1200 444" fill="none" stroke="#e3a857" stroke-opacity="0.20" stroke-width="1" stroke-dasharray="5 8"/>

  <!-- faint octocat watermark, right -->
  <g transform="translate(856 150) scale(13)">
    <path d="M12 .297c-6.63 0-12 5.373-12 12 0 5.303 3.438 9.8 8.205 11.385.6.113.82-.258.82-.577 0-.285-.01-1.04-.015-2.04-3.338.724-4.042-1.61-4.042-1.61C4.422 18.07 3.633 17.7 3.633 17.7c-1.087-.744.084-.729.084-.729 1.205.084 1.838 1.236 1.838 1.236 1.07 1.835 2.809 1.305 3.495.998.108-.776.417-1.305.76-1.605-2.665-.3-5.466-1.332-5.466-5.93 0-1.31.465-2.38 1.235-3.22-.135-.303-.54-1.523.105-3.176 0 0 1.005-.322 3.3 1.23.96-.267 1.98-.399 3-.405 1.02.006 2.04.138 3 .405 2.28-1.552 3.285-1.23 3.285-1.23.645 1.653.24 2.873.12 3.176.765.84 1.23 1.91 1.23 3.22 0 4.61-2.805 5.625-5.475 5.92.42.36.81 1.096.81 2.22 0 1.606-.015 2.896-.015 3.286 0 .315.21.69.825.57C20.565 22.092 24 17.592 24 12.297c0-6.627-5.373-12-12-12" fill="#e3a857" fill-opacity="0.10"/>
  </g>

  <!-- constellation fragment, upper left -->
  <g>
    <path d="M96 176L156 138L232 158L288 118" fill="none" stroke="#eae7db" stroke-opacity="0.18" stroke-width="1" stroke-dasharray="3 6"/>
    <circle cx="96" cy="176" r="2.6" fill="#eae7db" opacity="0.7"/>
    <path d="M156 131.8L157.9 136.1L162 138L157.9 139.9L156 144.2L154.1 139.9L150 138L154.1 136.1Z" fill="#e3a857"/>
    <circle cx="232" cy="158" r="2.6" fill="#eae7db" opacity="0.7"/>
    <circle cx="288" cy="118" r="2.2" fill="#eae7db" opacity="0.55"/>
    <circle cx="360" cy="150" r="1.6" fill="#eae7db" opacity="0.35"/>
    <circle cx="430" cy="112" r="1.4" fill="#eae7db" opacity="0.3"/>
  </g>

  <!-- map frame + corner ticks -->
  <rect x="16" y="16" width="1168" height="598" fill="none" stroke="#eae7db" stroke-opacity="0.12" stroke-width="1"/>
  <g stroke="#eae7db" stroke-opacity="0.30" stroke-width="1">
    <path d="M16 36V16H36M1164 16H1184V36M1184 594V614H1164M36 614H16V594"/>
  </g>
  <g stroke="#eae7db" stroke-opacity="0.15" stroke-width="1">
    <path d="M216 16v5M416 16v5M616 16v5M816 16v5M1016 16v5"/>
    <path d="M216 614v-5M416 614v-5M616 614v-5M816 614v-5M1016 614v-5"/>
    <path d="M16 157h5M16 315h5M16 473h5M1184 157h-5M1184 315h-5M1184 473h-5"/>
  </g>

  <!-- annotations -->
  <text x="52" y="62" font-family="Consolas, 'DejaVu Sans Mono', Menlo, monospace" font-size="22" letter-spacing="2.5" fill="#d8d3c5">OPEN-SOURCE WORK</text>
  <text x="1148" y="62" text-anchor="end" font-family="Consolas, 'DejaVu Sans Mono', Menlo, monospace" font-size="22" letter-spacing="2" fill="#b3ae9f">CHICAGO, IL · 41.8781°N</text>

  <!-- glow behind name -->
  <ellipse cx="420" cy="320" rx="480" ry="200" fill="url(#glow)"/>

  <!-- name + handle -->
  <text x="60" y="330" font-family="Georgia, 'Times New Roman', serif" font-size="106" letter-spacing="-2" fill="#eae7db">Archit Rath<tspan font-style="italic" fill="#e3a857">o</tspan>d</text>
  <text x="64" y="396" font-family="Consolas, 'DejaVu Sans Mono', Menlo, monospace" font-size="30" letter-spacing="3" fill="#e3a857">GITHUB.COM/ARCHIT1706</text>

  <line x1="60" y1="470" x2="1140" y2="470" stroke="#eae7db" stroke-opacity="0.16" stroke-width="1"/>

  <!-- stat ticker -->
  <text x="64" y="521" font-family="Consolas, 'DejaVu Sans Mono', Menlo, monospace" font-size="22" letter-spacing="1" fill="#d8d3c5">40+ PROJECTS <tspan fill="#e3a857">✦</tspan> 9 PUBLICATIONS <tspan fill="#e3a857">✦</tspan> GSOC 2025 <tspan fill="#e3a857">✦</tspan> RELFAIR · PYPI</text>

  <!-- sonar beacon, lower right -->
  <g>
    <circle cx="1088" cy="513" r="3.5" fill="#e3a857"/>
    <circle cx="1088" cy="513" r="16" fill="none" stroke="#e3a857" stroke-opacity="0.35" stroke-width="1"/>
    <circle cx="1088" cy="513" r="30" fill="none" stroke="#e3a857" stroke-opacity="0.14" stroke-width="1"/>
  </g>
</svg>
