<svg width="1200" height="640" viewBox="0 0 1200 640" xmlns="http://www.w3.org/2000/svg" role="img" aria-label="Skill constellations: Languages, ML and Data, Web and APIs, Geospatial, Infra and Cloud">
<rect width="1200" height="640" fill="#0a0e1a"/>
<g fill="none" stroke="#eae7db" stroke-opacity="0.04" stroke-width="1">
<path d="M-100 500 C 300 380, 900 380, 1300 500"/>
<path d="M-100 330 C 300 210, 900 210, 1300 330"/>
<path d="M320 -40 C 260 200, 260 440, 320 680"/>
<path d="M880 -40 C 940 200, 940 440, 880 680"/>
</g>
<g><circle cx="544" cy="307" r="0.8" fill="#eae7db" opacity="0.26"/><circle cx="396" cy="305" r="1.5" fill="#eae7db" opacity="0.28"/><circle cx="1038" cy="470" r="1.2" fill="#eae7db" opacity="0.11"/><circle cx="172" cy="420" r="0.8" fill="#eae7db" opacity="0.22"/><circle cx="157" cy="569" r="1.2" fill="#eae7db" opacity="0.20"/><circle cx="953" cy="74" r="1.2" fill="#eae7db" opacity="0.19"/><circle cx="392" cy="145" r="1.2" fill="#eae7db" opacity="0.14"/><circle cx="723" cy="183" r="1.2" fill="#eae7db" opacity="0.29"/><circle cx="930" cy="205" r="0.8" fill="#eae7db" opacity="0.21"/><circle cx="203" cy="111" r="1.2" fill="#eae7db" opacity="0.12"/><circle cx="594" cy="388" r="1.0" fill="#eae7db" opacity="0.26"/><circle cx="1013" cy="209" r="0.8" fill="#eae7db" opacity="0.15"/><circle cx="223" cy="176" r="1.5" fill="#eae7db" opacity="0.20"/><circle cx="443" cy="551" r="1.2" fill="#eae7db" opacity="0.28"/><circle cx="1086" cy="208" r="0.8" fill="#eae7db" opacity="0.15"/><circle cx="1079" cy="438" r="1.0" fill="#eae7db" opacity="0.23"/><circle cx="1125" cy="108" r="1.5" fill="#eae7db" opacity="0.29"/><circle cx="462" cy="343" r="0.8" fill="#eae7db" opacity="0.13"/><circle cx="879" cy="311" r="1.5" fill="#eae7db" opacity="0.21"/><circle cx="958" cy="367" r="1.5" fill="#eae7db" opacity="0.27"/><circle cx="805" cy="75" r="1.0" fill="#eae7db" opacity="0.15"/><circle cx="753" cy="553" r="1.5" fill="#eae7db" opacity="0.21"/><circle cx="774" cy="534" r="0.8" fill="#eae7db" opacity="0.16"/><circle cx="295" cy="368" r="1.0" fill="#eae7db" opacity="0.29"/><circle cx="867" cy="291" r="1.0" fill="#eae7db" opacity="0.17"/><circle cx="1028" cy="380" r="0.8" fill="#eae7db" opacity="0.10"/><circle cx="1117" cy="301" r="1.0" fill="#eae7db" opacity="0.17"/><circle cx="466" cy="359" r="1.5" fill="#eae7db" opacity="0.25"/><circle cx="1156" cy="541" r="0.8" fill="#eae7db" opacity="0.26"/><circle cx="988" cy="508" r="1.5" fill="#eae7db" opacity="0.25"/><circle cx="439" cy="531" r="1.2" fill="#eae7db" opacity="0.20"/><circle cx="206" cy="191" r="1.0" fill="#eae7db" opacity="0.20"/><circle cx="792" cy="311" r="1.0" fill="#eae7db" opacity="0.12"/><circle cx="255" cy="112" r="0.8" fill="#eae7db" opacity="0.23"/><circle cx="865" cy="282" r="1.2" fill="#eae7db" opacity="0.20"/><circle cx="1076" cy="574" r="1.5" fill="#eae7db" opacity="0.14"/><circle cx="474" cy="69" r="0.8" fill="#eae7db" opacity="0.23"/><circle cx="758" cy="487" r="0.8" fill="#eae7db" opacity="0.21"/><circle cx="982" cy="413" r="0.8" fill="#eae7db" opacity="0.11"/><circle cx="397" cy="484" r="1.5" fill="#eae7db" opacity="0.13"/><circle cx="155" cy="369" r="1.0" fill="#eae7db" opacity="0.29"/><circle cx="1112" cy="447" r="0.8" fill="#eae7db" opacity="0.18"/><circle cx="778" cy="254" r="0.8" fill="#eae7db" opacity="0.23"/><circle cx="287" cy="52" r="1.0" fill="#eae7db" opacity="0.16"/><circle cx="862" cy="562" r="1.0" fill="#eae7db" opacity="0.13"/><circle cx="95" cy="340" r="1.2" fill="#eae7db" opacity="0.21"/><circle cx="813" cy="136" r="0.8" fill="#eae7db" opacity="0.29"/><circle cx="690" cy="305" r="1.2" fill="#eae7db" opacity="0.21"/><circle cx="575" cy="238" r="1.0" fill="#eae7db" opacity="0.27"/><circle cx="456" cy="94" r="1.2" fill="#eae7db" opacity="0.28"/><circle cx="754" cy="518" r="1.2" fill="#eae7db" opacity="0.26"/><circle cx="132" cy="352" r="0.8" fill="#eae7db" opacity="0.11"/><circle cx="184" cy="333" r="1.2" fill="#eae7db" opacity="0.17"/><circle cx="785" cy="271" r="1.0" fill="#eae7db" opacity="0.21"/><circle cx="87" cy="384" r="1.0" fill="#eae7db" opacity="0.30"/><circle cx="64" cy="447" r="1.5" fill="#eae7db" opacity="0.21"/><circle cx="189" cy="210" r="1.2" fill="#eae7db" opacity="0.14"/><circle cx="1079" cy="423" r="1.0" fill="#eae7db" opacity="0.23"/><circle cx="951" cy="97" r="0.8" fill="#eae7db" opacity="0.28"/></g>
<rect x="14" y="14" width="1172" height="612" fill="none" stroke="#eae7db" stroke-opacity="0.12" stroke-width="1"/>
<g stroke="#eae7db" stroke-opacity="0.30" stroke-width="1"><path d="M14 34V14H34M1166 14H1186V34M1186 606V626H1166M34 626H14V606"/></g>
<g stroke="#eae7db" stroke-opacity="0.15" stroke-width="1"><path d="M134 14v5M134 626v-5M254 14v5M254 626v-5M374 14v5M374 626v-5M494 14v5M494 626v-5M614 14v5M614 626v-5M734 14v5M734 626v-5M854 14v5M854 626v-5M974 14v5M974 626v-5M1094 14v5M1094 626v-5M14 94h5M1186 94h-5M14 174h5M1186 174h-5M14 254h5M1186 254h-5M14 334h5M1186 334h-5M14 414h5M1186 414h-5M14 494h5M1186 494h-5M14 574h5M1186 574h-5"/></g>
<text x="46" y="52" font-family="Consolas, 'DejaVu Sans Mono', Menlo, monospace" font-size="14" letter-spacing="2" fill="#716e64">FIG. 02 · SKILL CONSTELLATIONS</text>
<text x="1154" y="52" text-anchor="end" font-family="Consolas, 'DejaVu Sans Mono', Menlo, monospace" font-size="14" letter-spacing="2" fill="#716e64">41 FIXED STARS · 5 CONSTELLATIONS</text>
<g>
<text x="60" y="74" font-family="Consolas, 'DejaVu Sans Mono', Menlo, monospace" font-size="15" letter-spacing="3.5" fill="#e3a857">LANGUAGES</text>
<path d="M60 83h100" stroke="#e3a857" stroke-opacity="0.35" stroke-width="1"/>
<path d="M116.6 224.3L155.4 159.7M168.5 149.0L253.5 119.0M268.4 122.4L329.6 183.6M332.1 198.1L309.9 243.9M297.1 253.5L216.9 266.5M199.6 264.8L120.4 235.2" fill="none" stroke="#eae7db" stroke-opacity="0.16" stroke-width="1" stroke-dasharray="3 6"><animate attributeName="stroke-dashoffset" values="0;-72" dur="24s" repeatCount="indefinite"/></path>
<path d="M160 145L162.1 149.9L167 152L162.1 154.1L160 159L157.9 154.1L153 152L157.9 149.9Z" fill="#e3a857"><animate attributeName="opacity" values="1.0;0.55;1.0" dur="3.75s" begin="1.85s" repeatCount="indefinite"/></path>
<circle cx="160" cy="152" r="11" fill="none" stroke="#e3a857" stroke-opacity="0.25" stroke-width="1"/>
<text x="173" y="157" font-family="Consolas, 'DejaVu Sans Mono', Menlo, monospace" font-size="14.5" letter-spacing="0.5" fill="#eae7db">Python</text>
<path d="M262 109L264.1 113.9L269 116L264.1 118.1L262 123L259.9 118.1L255 116L259.9 113.9Z" fill="#e3a857"><animate attributeName="opacity" values="1.0;0.55;1.0" dur="4.63s" begin="0.35s" repeatCount="indefinite"/></path>
<circle cx="262" cy="116" r="11" fill="none" stroke="#e3a857" stroke-opacity="0.25" stroke-width="1"/>
<text x="275" y="121" font-family="Consolas, 'DejaVu Sans Mono', Menlo, monospace" font-size="14.5" letter-spacing="0.5" fill="#eae7db">TypeScript</text>
<circle cx="336" cy="190" r="2.6" fill="#eae7db"><animate attributeName="opacity" values="0.95;0.35;0.95" dur="2.85s" begin="0.67s" repeatCount="indefinite"/></circle>
<text x="349" y="195" font-family="Consolas, 'DejaVu Sans Mono', Menlo, monospace" font-size="14" letter-spacing="0.5" fill="#a9a496">JavaScript</text>
<circle cx="112" cy="232" r="2.6" fill="#eae7db"><animate attributeName="opacity" values="0.95;0.35;0.95" dur="2.78s" begin="1.01s" repeatCount="indefinite"/></circle>
<text x="125" y="237" font-family="Consolas, 'DejaVu Sans Mono', Menlo, monospace" font-size="14" letter-spacing="0.5" fill="#a9a496">SQL</text>
<circle cx="208" cy="268" r="2.6" fill="#eae7db"><animate attributeName="opacity" values="0.95;0.35;0.95" dur="2.61s" begin="1.31s" repeatCount="indefinite"/></circle>
<text x="221" y="273" font-family="Consolas, 'DejaVu Sans Mono', Menlo, monospace" font-size="14" letter-spacing="0.5" fill="#a9a496">C/C++</text>
<circle cx="306" cy="252" r="2.6" fill="#eae7db"><animate attributeName="opacity" values="0.95;0.35;0.95" dur="2.61s" begin="1.19s" repeatCount="indefinite"/></circle>
<text x="319" y="257" font-family="Consolas, 'DejaVu Sans Mono', Menlo, monospace" font-size="14" letter-spacing="0.5" fill="#a9a496">GLSL</text>
</g>
<g>
<text x="448" y="74" font-family="Consolas, 'DejaVu Sans Mono', Menlo, monospace" font-size="15" letter-spacing="3.5" fill="#e3a857">ML &amp; DATA</text>
<path d="M448 83h100" stroke="#e3a857" stroke-opacity="0.35" stroke-width="1"/>
<path d="M473.5 206.9L518.5 149.1M532.6 139.4L613.4 114.6M630.0 116.1L716.0 159.9M717.4 170.2L662.6 221.8M664.6 230.6L735.4 251.4M527.2 150.4L562.8 243.6M572.4 258.4L619.6 305.6M629.0 303.5L653.0 236.5M472.0 222.1L508.0 295.9" fill="none" stroke="#eae7db" stroke-opacity="0.16" stroke-width="1" stroke-dasharray="3 6"><animate attributeName="stroke-dashoffset" values="0;-72" dur="24s" repeatCount="indefinite"/></path>
<path d="M524 135L526.1 139.9L531 142L526.1 144.1L524 149L521.9 144.1L517 142L521.9 139.9Z" fill="#e3a857"><animate attributeName="opacity" values="1.0;0.55;1.0" dur="3.11s" begin="0.94s" repeatCount="indefinite"/></path>
<circle cx="524" cy="142" r="11" fill="none" stroke="#e3a857" stroke-opacity="0.25" stroke-width="1"/>
<text x="537" y="147" font-family="Consolas, 'DejaVu Sans Mono', Menlo, monospace" font-size="14.5" letter-spacing="0.5" fill="#eae7db">PyTorch</text>
<circle cx="622" cy="112" r="2.6" fill="#eae7db"><animate attributeName="opacity" values="0.95;0.35;0.95" dur="3.95s" begin="1.51s" repeatCount="indefinite"/></circle>
<text x="635" y="117" font-family="Consolas, 'DejaVu Sans Mono', Menlo, monospace" font-size="14" letter-spacing="0.5" fill="#a9a496">Transformers</text>
<circle cx="724" cy="164" r="2.6" fill="#eae7db"><animate attributeName="opacity" values="0.95;0.35;0.95" dur="5.03s" begin="0.37s" repeatCount="indefinite"/></circle>
<text x="737" y="169" font-family="Consolas, 'DejaVu Sans Mono', Menlo, monospace" font-size="14" letter-spacing="0.5" fill="#a9a496">LangChain</text>
<circle cx="468" cy="214" r="2.6" fill="#eae7db"><animate attributeName="opacity" values="0.95;0.35;0.95" dur="4.36s" begin="1.09s" repeatCount="indefinite"/></circle>
<text x="481" y="219" font-family="Consolas, 'DejaVu Sans Mono', Menlo, monospace" font-size="14" letter-spacing="0.5" fill="#a9a496">scikit-learn</text>
<circle cx="566" cy="252" r="2.6" fill="#eae7db"><animate attributeName="opacity" values="0.95;0.35;0.95" dur="3.28s" begin="1.43s" repeatCount="indefinite"/></circle>
<text x="579" y="257" font-family="Consolas, 'DejaVu Sans Mono', Menlo, monospace" font-size="14" letter-spacing="0.5" fill="#a9a496">NumPy</text>
<circle cx="656" cy="228" r="2.6" fill="#eae7db"><animate attributeName="opacity" values="0.95;0.35;0.95" dur="3.66s" begin="1.12s" repeatCount="indefinite"/></circle>
<text x="669" y="233" font-family="Consolas, 'DejaVu Sans Mono', Menlo, monospace" font-size="14" letter-spacing="0.5" fill="#a9a496">Pandas</text>
<circle cx="744" cy="254" r="2.6" fill="#eae7db"><animate attributeName="opacity" values="0.95;0.35;0.95" dur="2.64s" begin="1.46s" repeatCount="indefinite"/></circle>
<text x="757" y="259" font-family="Consolas, 'DejaVu Sans Mono', Menlo, monospace" font-size="14" letter-spacing="0.5" fill="#a9a496">PySpark</text>
<circle cx="512" cy="304" r="2.6" fill="#eae7db"><animate attributeName="opacity" values="0.95;0.35;0.95" dur="3.01s" begin="1.73s" repeatCount="indefinite"/></circle>
<text x="525" y="309" font-family="Consolas, 'DejaVu Sans Mono', Menlo, monospace" font-size="14" letter-spacing="0.5" fill="#a9a496">OpenCV</text>
<circle cx="626" cy="312" r="2.6" fill="#eae7db"><animate attributeName="opacity" values="0.95;0.35;0.95" dur="4.44s" begin="1.41s" repeatCount="indefinite"/></circle>
<text x="639" y="317" font-family="Consolas, 'DejaVu Sans Mono', Menlo, monospace" font-size="14" letter-spacing="0.5" fill="#a9a496">Captum</text>
</g>
<g>
<text x="856" y="74" font-family="Consolas, 'DejaVu Sans Mono', Menlo, monospace" font-size="15" letter-spacing="3.5" fill="#e3a857">WEB &amp; APIS</text>
<path d="M856 83h112" stroke="#e3a857" stroke-opacity="0.35" stroke-width="1"/>
<path d="M905.5 193.7L928.5 140.3M940.8 129.9L1025.2 110.1M1041.3 113.3L1100.7 156.7M1100.5 166.9L999.5 233.1M990.2 246.8L979.8 297.2M886.0 273.2L900.0 210.8M1083.8 280.2L1000.2 241.8" fill="none" stroke="#eae7db" stroke-opacity="0.16" stroke-width="1" stroke-dasharray="3 6"><animate attributeName="stroke-dashoffset" values="0;-72" dur="24s" repeatCount="indefinite"/></path>
<path d="M932 125L934.1 129.9L939 132L934.1 134.1L932 139L929.9 134.1L925 132L929.9 129.9Z" fill="#e3a857"><animate attributeName="opacity" values="1.0;0.55;1.0" dur="4.97s" begin="0.64s" repeatCount="indefinite"/></path>
<circle cx="932" cy="132" r="11" fill="none" stroke="#e3a857" stroke-opacity="0.25" stroke-width="1"/>
<text x="945" y="137" font-family="Consolas, 'DejaVu Sans Mono', Menlo, monospace" font-size="14.5" letter-spacing="0.5" fill="#eae7db">Next.js</text>
<path d="M1034 101L1036.1 105.9L1041 108L1036.1 110.1L1034 115L1031.9 110.1L1027 108L1031.9 105.9Z" fill="#e3a857"><animate attributeName="opacity" values="1.0;0.55;1.0" dur="4.96s" begin="1.52s" repeatCount="indefinite"/></path>
<circle cx="1034" cy="108" r="11" fill="none" stroke="#e3a857" stroke-opacity="0.25" stroke-width="1"/>
<text x="1047" y="113" font-family="Consolas, 'DejaVu Sans Mono', Menlo, monospace" font-size="14.5" letter-spacing="0.5" fill="#eae7db">React</text>
<path d="M1108 155L1110.1 159.9L1115 162L1110.1 164.1L1108 169L1105.9 164.1L1101 162L1105.9 159.9Z" fill="#e3a857"><animate attributeName="opacity" values="1.0;0.55;1.0" dur="3.35s" begin="1.35s" repeatCount="indefinite"/></path>
<circle cx="1108" cy="162" r="11" fill="none" stroke="#e3a857" stroke-opacity="0.25" stroke-width="1"/>
<text x="1095" y="167" text-anchor="end" font-family="Consolas, 'DejaVu Sans Mono', Menlo, monospace" font-size="14.5" letter-spacing="0.5" fill="#eae7db">FastAPI</text>
<circle cx="902" cy="202" r="2.6" fill="#eae7db"><animate attributeName="opacity" values="0.95;0.35;0.95" dur="3.81s" begin="0.05s" repeatCount="indefinite"/></circle>
<text x="915" y="207" font-family="Consolas, 'DejaVu Sans Mono', Menlo, monospace" font-size="14" letter-spacing="0.5" fill="#a9a496">Node.js</text>
<circle cx="992" cy="238" r="2.6" fill="#eae7db"><animate attributeName="opacity" values="0.95;0.35;0.95" dur="2.94s" begin="1.84s" repeatCount="indefinite"/></circle>
<text x="1005" y="243" font-family="Consolas, 'DejaVu Sans Mono', Menlo, monospace" font-size="14" letter-spacing="0.5" fill="#a9a496">Tailwind CSS</text>
<circle cx="884" cy="282" r="2.6" fill="#eae7db"><animate attributeName="opacity" values="0.95;0.35;0.95" dur="2.70s" begin="0.57s" repeatCount="indefinite"/></circle>
<text x="897" y="287" font-family="Consolas, 'DejaVu Sans Mono', Menlo, monospace" font-size="14" letter-spacing="0.5" fill="#a9a496">Three.js</text>
<circle cx="1092" cy="284" r="2.6" fill="#eae7db"><animate attributeName="opacity" values="0.95;0.35;0.95" dur="3.56s" begin="0.46s" repeatCount="indefinite"/></circle>
<text x="1079" y="289" text-anchor="end" font-family="Consolas, 'DejaVu Sans Mono', Menlo, monospace" font-size="14" letter-spacing="0.5" fill="#a9a496">GSAP</text>
<circle cx="978" cy="306" r="2.6" fill="#eae7db"><animate attributeName="opacity" values="0.95;0.35;0.95" dur="4.24s" begin="0.71s" repeatCount="indefinite"/></circle>
<text x="991" y="311" font-family="Consolas, 'DejaVu Sans Mono', Menlo, monospace" font-size="14" letter-spacing="0.5" fill="#a9a496">Leaflet</text>
</g>
<g>
<text x="60" y="384" font-family="Consolas, 'DejaVu Sans Mono', Menlo, monospace" font-size="15" letter-spacing="3.5" fill="#e3a857">GEOSPATIAL</text>
<path d="M60 393h112" stroke="#e3a857" stroke-opacity="0.35" stroke-width="1"/>
<path d="M122.4 504.2L147.6 459.8M160.7 449.8L245.3 428.2M261.8 430.5L326.2 467.5M331.0 480.5L315.0 525.5M159.4 457.1L216.6 496.9M232.5 505.1L303.5 530.9M165.1 552.2L124.9 517.8M305.4 540.1L270.6 571.9" fill="none" stroke="#eae7db" stroke-opacity="0.16" stroke-width="1" stroke-dasharray="3 6"><animate attributeName="stroke-dashoffset" values="0;-72" dur="24s" repeatCount="indefinite"/></path>
<path d="M152 445L154.1 449.9L159 452L154.1 454.1L152 459L149.9 454.1L145 452L149.9 449.9Z" fill="#e3a857"><animate attributeName="opacity" values="1.0;0.55;1.0" dur="4.19s" begin="0.07s" repeatCount="indefinite"/></path>
<circle cx="152" cy="452" r="11" fill="none" stroke="#e3a857" stroke-opacity="0.25" stroke-width="1"/>
<text x="165" y="457" font-family="Consolas, 'DejaVu Sans Mono', Menlo, monospace" font-size="14.5" letter-spacing="0.5" fill="#eae7db">PostGIS</text>
<circle cx="254" cy="426" r="2.6" fill="#eae7db"><animate attributeName="opacity" values="0.95;0.35;0.95" dur="2.88s" begin="1.08s" repeatCount="indefinite"/></circle>
<text x="267" y="431" font-family="Consolas, 'DejaVu Sans Mono', Menlo, monospace" font-size="14" letter-spacing="0.5" fill="#a9a496">OSMnx</text>
<circle cx="334" cy="472" r="2.6" fill="#eae7db"><animate attributeName="opacity" values="0.95;0.35;0.95" dur="4.51s" begin="1.35s" repeatCount="indefinite"/></circle>
<text x="347" y="477" font-family="Consolas, 'DejaVu Sans Mono', Menlo, monospace" font-size="14" letter-spacing="0.5" fill="#a9a496">NetworkX</text>
<circle cx="118" cy="512" r="2.6" fill="#eae7db"><animate attributeName="opacity" values="0.95;0.35;0.95" dur="3.30s" begin="1.99s" repeatCount="indefinite"/></circle>
<text x="131" y="517" font-family="Consolas, 'DejaVu Sans Mono', Menlo, monospace" font-size="14" letter-spacing="0.5" fill="#a9a496">GeoPandas</text>
<circle cx="224" cy="502" r="2.6" fill="#eae7db"><animate attributeName="opacity" values="0.95;0.35;0.95" dur="3.85s" begin="1.16s" repeatCount="indefinite"/></circle>
<text x="237" y="507" font-family="Consolas, 'DejaVu Sans Mono', Menlo, monospace" font-size="14" letter-spacing="0.5" fill="#a9a496">Shapely</text>
<circle cx="312" cy="534" r="2.6" fill="#eae7db"><animate attributeName="opacity" values="0.95;0.35;0.95" dur="3.71s" begin="0.40s" repeatCount="indefinite"/></circle>
<text x="325" y="539" font-family="Consolas, 'DejaVu Sans Mono', Menlo, monospace" font-size="14" letter-spacing="0.5" fill="#a9a496">Valhalla</text>
<circle cx="172" cy="558" r="2.6" fill="#eae7db"><animate attributeName="opacity" values="0.95;0.35;0.95" dur="4.94s" begin="0.14s" repeatCount="indefinite"/></circle>
<text x="185" y="563" font-family="Consolas, 'DejaVu Sans Mono', Menlo, monospace" font-size="14" letter-spacing="0.5" fill="#a9a496">OpenLR</text>
<circle cx="264" cy="578" r="2.6" fill="#eae7db"><animate attributeName="opacity" values="0.95;0.35;0.95" dur="3.50s" begin="0.72s" repeatCount="indefinite"/></circle>
<text x="277" y="583" font-family="Consolas, 'DejaVu Sans Mono', Menlo, monospace" font-size="14" letter-spacing="0.5" fill="#a9a496">ArcGIS Pro</text>
</g>
<g>
<text x="744" y="384" font-family="Consolas, 'DejaVu Sans Mono', Menlo, monospace" font-size="15" letter-spacing="3.5" fill="#e3a857">INFRA &amp; CLOUD</text>
<path d="M744 393h145" stroke="#e3a857" stroke-opacity="0.35" stroke-width="1"/>
<path d="M778.4 485.6L815.6 448.4M830.8 440.0L925.2 418.0M942.7 418.3L1025.3 439.7M1028.1 448.8L987.9 495.2M990.9 503.5L1093.1 520.5M928.6 423.2L889.4 474.8M886.1 490.8L899.9 549.2M893.1 556.6L810.9 543.4M797.4 534.3L776.6 499.7M1038.8 576.1L1095.2 527.9" fill="none" stroke="#eae7db" stroke-opacity="0.16" stroke-width="1" stroke-dasharray="3 6"><animate attributeName="stroke-dashoffset" values="0;-72" dur="24s" repeatCount="indefinite"/></path>
<path d="M822 435L824.1 439.9L829 442L824.1 444.1L822 449L819.9 444.1L815 442L819.9 439.9Z" fill="#e3a857"><animate attributeName="opacity" values="1.0;0.55;1.0" dur="3.71s" begin="0.40s" repeatCount="indefinite"/></path>
<circle cx="822" cy="442" r="11" fill="none" stroke="#e3a857" stroke-opacity="0.25" stroke-width="1"/>
<text x="835" y="447" font-family="Consolas, 'DejaVu Sans Mono', Menlo, monospace" font-size="14.5" letter-spacing="0.5" fill="#eae7db">PostgreSQL</text>
<path d="M934 409L936.1 413.9L941 416L936.1 418.1L934 423L931.9 418.1L927 416L931.9 413.9Z" fill="#e3a857"><animate attributeName="opacity" values="1.0;0.55;1.0" dur="4.94s" begin="0.85s" repeatCount="indefinite"/></path>
<circle cx="934" cy="416" r="11" fill="none" stroke="#e3a857" stroke-opacity="0.25" stroke-width="1"/>
<text x="947" y="421" font-family="Consolas, 'DejaVu Sans Mono', Menlo, monospace" font-size="14.5" letter-spacing="0.5" fill="#eae7db">Docker</text>
<circle cx="1034" cy="442" r="2.6" fill="#eae7db"><animate attributeName="opacity" values="0.95;0.35;0.95" dur="3.76s" begin="0.22s" repeatCount="indefinite"/></circle>
<text x="1047" y="447" font-family="Consolas, 'DejaVu Sans Mono', Menlo, monospace" font-size="14" letter-spacing="0.5" fill="#a9a496">Kubernetes</text>
<circle cx="772" cy="492" r="2.6" fill="#eae7db"><animate attributeName="opacity" values="0.95;0.35;0.95" dur="2.71s" begin="1.06s" repeatCount="indefinite"/></circle>
<text x="785" y="497" font-family="Consolas, 'DejaVu Sans Mono', Menlo, monospace" font-size="14" letter-spacing="0.5" fill="#a9a496">Terraform</text>
<circle cx="884" cy="482" r="2.6" fill="#eae7db"><animate attributeName="opacity" values="0.95;0.35;0.95" dur="5.08s" begin="1.00s" repeatCount="indefinite"/></circle>
<text x="897" y="487" font-family="Consolas, 'DejaVu Sans Mono', Menlo, monospace" font-size="14" letter-spacing="0.5" fill="#a9a496">Redis</text>
<circle cx="982" cy="502" r="2.6" fill="#eae7db"><animate attributeName="opacity" values="0.95;0.35;0.95" dur="3.13s" begin="1.32s" repeatCount="indefinite"/></circle>
<text x="995" y="507" font-family="Consolas, 'DejaVu Sans Mono', Menlo, monospace" font-size="14" letter-spacing="0.5" fill="#a9a496">Neo4j</text>
<circle cx="1102" cy="522" r="2.6" fill="#eae7db"><animate attributeName="opacity" values="0.95;0.35;0.95" dur="4.32s" begin="1.40s" repeatCount="indefinite"/></circle>
<text x="1089" y="527" text-anchor="end" font-family="Consolas, 'DejaVu Sans Mono', Menlo, monospace" font-size="14" letter-spacing="0.5" fill="#a9a496">MongoDB</text>
<circle cx="802" cy="542" r="2.6" fill="#eae7db"><animate attributeName="opacity" values="0.95;0.35;0.95" dur="4.93s" begin="0.19s" repeatCount="indefinite"/></circle>
<text x="815" y="547" font-family="Consolas, 'DejaVu Sans Mono', Menlo, monospace" font-size="14" letter-spacing="0.5" fill="#a9a496">Nginx</text>
<circle cx="902" cy="558" r="2.6" fill="#eae7db"><animate attributeName="opacity" values="0.95;0.35;0.95" dur="4.07s" begin="0.23s" repeatCount="indefinite"/></circle>
<text x="915" y="563" font-family="Consolas, 'DejaVu Sans Mono', Menlo, monospace" font-size="14" letter-spacing="0.5" fill="#a9a496">GitHub Actions</text>
<circle cx="1032" cy="582" r="2.6" fill="#eae7db"><animate attributeName="opacity" values="0.95;0.35;0.95" dur="2.89s" begin="1.60s" repeatCount="indefinite"/></circle>
<text x="1045" y="587" font-family="Consolas, 'DejaVu Sans Mono', Menlo, monospace" font-size="14" letter-spacing="0.5" fill="#a9a496">Linux</text>
</g>
<g fill="none" stroke="#eae7db" stroke-opacity="0.28" stroke-width="1">
  <circle cx="566" cy="496" r="42"/>
  <circle cx="566" cy="496" r="30" stroke-opacity="0.14"/>
  <path d="M566 446v8M566 538v8M516 496h8M608 496h8"/>
</g>
<text x="566" y="438" text-anchor="middle" font-family="Consolas, 'DejaVu Sans Mono', Menlo, monospace" font-size="13" fill="#716e64">N</text>
<g>
  <animateTransform attributeName="transform" type="rotate" values="-8 566 496;8 566 496;-8 566 496" dur="10s" repeatCount="indefinite"/>
  <path d="M566 470L571 496L566 522L561 496Z" fill="#e3a857" fill-opacity="0.85"/>
  <path d="M566 470L571 496L561 496Z" fill="#f0bd72"/>
</g>
<circle cx="566" cy="496" r="3" fill="#0a0e1a" stroke="#e3a857" stroke-width="1"/>
<text x="566" y="570" text-anchor="middle" font-family="Georgia, 'Times New Roman', serif" font-size="16" font-style="italic" fill="#a9a496">navigate by what you know</text>
<g opacity="0">
  <animate attributeName="opacity" values="0;0.9;0" keyTimes="0;0.5;1" dur="1.6s" begin="6s;21s;38s" />
  <line x1="0" y1="0" x2="34" y2="10" stroke="#eae7db" stroke-opacity="0.7" stroke-width="1"/>
  <circle cx="34" cy="10" r="1.6" fill="#eae7db"/>
  <animateTransform attributeName="transform" type="translate" values="430 90;560 128" dur="1.6s" begin="6s;21s;38s"/>
</g>
</svg>
