<svg width="1150" height="820" viewBox="0 0 1150 820" xmlns="http://www.w3.org/2000/svg" xmlns:xlink="http://www.w3.org/1999/xlink" font-family="-apple-system,BlinkMacSystemFont,Segoe UI,Roboto,Helvetica,Arial,sans-serif"><defs><radialGradient id="space" cx="50%" cy="50%" r="75%"><stop offset="0" stop-color="#161633"/><stop offset="55%" stop-color="#0a0e1f"/><stop offset="100%" stop-color="#04050d"/></radialGradient><radialGradient id="core" cx="50%" cy="50%" r="50%"><stop offset="0" stop-color="#fde68a"/><stop offset="40%" stop-color="#fb923c"/><stop offset="100%" stop-color="#b45309"/></radialGradient><radialGradient id="cg" cx="50%" cy="50%" r="50%"><stop offset="0" stop-color="#fb923c" stop-opacity="0.5"/><stop offset="100%" stop-color="#fb923c" stop-opacity="0"/></radialGradient><path id="orb0" d="M 721.6,461.4 A 120.0,114.5 20 0 1 496.1,379.3 A 120.0,114.5 20 0 1 721.6,461.4"/><path id="orb1" d="M 621.6,627.5 A 158.0,143.4 78 0 1 555.9,318.4 A 158.0,143.4 78 0 1 621.6,627.5"/><path id="orb2" d="M 413.8,593.5 A 192.0,184.3 131 0 1 665.7,303.7 A 192.0,184.3 131 0 1 413.8,593.5"/><path id="orb3" d="M 248.3,453.9 A 226.0,200.7 172 0 1 695.9,391.0 A 226.0,200.7 172 0 1 248.3,453.9"/><path id="orb4" d="M 403.4,188.3 A 205.0,191.3 232 0 1 655.8,511.4 A 205.0,191.3 232 0 1 403.4,188.3"/><path id="orb5" d="M 774.1,123.6 A 248.0,227.3 305 0 1 489.7,529.9 A 248.0,227.3 305 0 1 774.1,123.6"/></defs><rect width="1150" height="820" rx="24" fill="url(#space)"/><g><circle cx="375" cy="128" r="1.3" fill="#fff" fill-opacity="0.25"></circle><circle cx="422" cy="53" r="1.2" fill="#fff" fill-opacity="0.22"></circle><circle cx="85" cy="79" r="1.1" fill="#fff" fill-opacity="0.74"><animate attributeName="fill-opacity" values="0.74;0.08;0.74" dur="2.6s" repeatCount="indefinite"/></circle><circle cx="720" cy="772" r="1.3" fill="#fff" fill-opacity="0.46"></circle><circle cx="59" cy="700" r="0.9" fill="#fff" fill-opacity="0.29"><animate attributeName="fill-opacity" values="0.29;0.08;0.29" dur="2.8s" repeatCount="indefinite"/></circle><circle cx="935" cy="152" r="1.3" fill="#fff" fill-opacity="0.62"><animate attributeName="fill-opacity" values="0.62;0.08;0.62" dur="3.4s" repeatCount="indefinite"/></circle><circle cx="77" cy="54" r="0.8" fill="#fff" fill-opacity="0.64"></circle><circle cx="363" cy="479" r="1.1" fill="#fff" fill-opacity="0.39"></circle><circle cx="801" cy="203" r="1.2" fill="#fff" fill-opacity="0.54"></circle><circle cx="836" cy="239" r="1.8" fill="#fff" fill-opacity="0.28"></circle><circle cx="868" cy="129" r="1.1" fill="#fff" fill-opacity="0.23"></circle><circle cx="876" cy="469" r="1.6" fill="#fff" fill-opacity="0.40"></circle><circle cx="682" cy="475" r="1.1" fill="#fff" fill-opacity="0.75"></circle><circle cx="546" cy="543" r="0.6" fill="#fff" fill-opacity="0.66"></circle><circle cx="1136" cy="670" r="0.9" fill="#fff" fill-opacity="0.45"></circle><circle cx="32" cy="379" r="0.7" fill="#fff" fill-opacity="0.28"><animate attributeName="fill-opacity" values="0.28;0.08;0.28" dur="3.9s" repeatCount="indefinite"/></circle><circle cx="153" cy="206" r="1.0" fill="#fff" fill-opacity="0.77"><animate attributeName="fill-opacity" values="0.77;0.08;0.77" dur="3.1s" repeatCount="indefinite"/></circle><circle cx="631" cy="720" r="1.6" fill="#fff" fill-opacity="0.76"><animate attributeName="fill-opacity" values="0.76;0.08;0.76" dur="3.0s" repeatCount="indefinite"/></circle><circle cx="414" cy="720" r="1.7" fill="#fff" fill-opacity="0.30"><animate attributeName="fill-opacity" values="0.30;0.08;0.30" dur="2.6s" repeatCount="indefinite"/></circle><circle cx="272" cy="398" r="1.3" fill="#fff" fill-opacity="0.37"><animate attributeName="fill-opacity" values="0.37;0.08;0.37" dur="3.0s" repeatCount="indefinite"/></circle><circle cx="426" cy="464" r="1.7" fill="#fff" fill-opacity="0.65"></circle><circle cx="709" cy="552" r="0.6" fill="#fff" fill-opacity="0.78"></circle><circle cx="1001" cy="651" r="1.0" fill="#fff" fill-opacity="0.46"><animate attributeName="fill-opacity" values="0.46;0.08;0.46" dur="3.6s" repeatCount="indefinite"/></circle><circle cx="77" cy="60" r="0.8" fill="#fff" fill-opacity="0.31"><animate attributeName="fill-opacity" values="0.31;0.08;0.31" dur="2.1s" repeatCount="indefinite"/></circle><circle cx="6" cy="128" r="0.6" fill="#fff" fill-opacity="0.44"><animate attributeName="fill-opacity" values="0.44;0.08;0.44" dur="4.2s" repeatCount="indefinite"/></circle><circle cx="705" cy="126" r="0.8" fill="#fff" fill-opacity="0.43"><animate attributeName="fill-opacity" values="0.43;0.08;0.43" dur="2.3s" repeatCount="indefinite"/></circle><circle cx="972" cy="808" r="1.1" fill="#fff" fill-opacity="0.51"><animate attributeName="fill-opacity" values="0.51;0.08;0.51" dur="2.3s" repeatCount="indefinite"/></circle><circle cx="396" cy="220" r="1.6" fill="#fff" fill-opacity="0.30"><animate attributeName="fill-opacity" values="0.30;0.08;0.30" dur="4.4s" repeatCount="indefinite"/></circle><circle cx="607" cy="124" r="1.2" fill="#fff" fill-opacity="0.22"></circle><circle cx="1120" cy="704" r="1.4" fill="#fff" fill-opacity="0.37"><animate attributeName="fill-opacity" values="0.37;0.08;0.37" dur="2.4s" repeatCount="indefinite"/></circle><circle cx="884" cy="436" r="1.5" fill="#fff" fill-opacity="0.41"><animate attributeName="fill-opacity" values="0.41;0.08;0.41" dur="4.0s" repeatCount="indefinite"/></circle><circle cx="1127" cy="695" r="1.5" fill="#fff" fill-opacity="0.73"></circle><circle cx="264" cy="424" r="1.0" fill="#fff" fill-opacity="0.22"><animate attributeName="fill-opacity" values="0.22;0.08;0.22" dur="2.7s" repeatCount="indefinite"/></circle><circle cx="301" cy="566" r="1.7" fill="#fff" fill-opacity="0.49"></circle><circle cx="1130" cy="778" r="1.0" fill="#fff" fill-opacity="0.34"><animate attributeName="fill-opacity" values="0.34;0.08;0.34" dur="2.5s" repeatCount="indefinite"/></circle><circle cx="239" cy="510" r="1.7" fill="#fff" fill-opacity="0.75"></circle><circle cx="749" cy="652" r="0.6" fill="#fff" fill-opacity="0.63"></circle><circle cx="896" cy="612" r="1.1" fill="#fff" fill-opacity="0.32"></circle><circle cx="384" cy="653" r="1.8" fill="#fff" fill-opacity="0.46"></circle><circle cx="1083" cy="592" r="0.7" fill="#fff" fill-opacity="0.28"><animate attributeName="fill-opacity" values="0.28;0.08;0.28" dur="4.3s" repeatCount="indefinite"/></circle><circle cx="924" cy="124" r="1.6" fill="#fff" fill-opacity="0.84"></circle><circle cx="405" cy="449" r="0.7" fill="#fff" fill-opacity="0.21"></circle><circle cx="745" cy="431" r="1.7" fill="#fff" fill-opacity="0.48"></circle><circle cx="946" cy="177" r="0.8" fill="#fff" fill-opacity="0.39"><animate attributeName="fill-opacity" values="0.39;0.08;0.39" dur="3.5s" repeatCount="indefinite"/></circle><circle cx="301" cy="345" r="0.7" fill="#fff" fill-opacity="0.79"><animate attributeName="fill-opacity" values="0.79;0.08;0.79" dur="3.1s" repeatCount="indefinite"/></circle><circle cx="670" cy="737" r="1.0" fill="#fff" fill-opacity="0.80"></circle><circle cx="611" cy="429" r="0.5" fill="#fff" fill-opacity="0.49"><animate attributeName="fill-opacity" values="0.49;0.08;0.49" dur="2.0s" repeatCount="indefinite"/></circle><circle cx="915" cy="145" r="1.1" fill="#fff" fill-opacity="0.67"></circle><circle cx="377" cy="425" r="1.2" fill="#fff" fill-opacity="0.71"><animate attributeName="fill-opacity" values="0.71;0.08;0.71" dur="3.4s" repeatCount="indefinite"/></circle><circle cx="289" cy="230" r="1.5" fill="#fff" fill-opacity="0.53"></circle><circle cx="871" cy="743" r="1.1" fill="#fff" fill-opacity="0.60"></circle><circle cx="589" cy="566" r="1.1" fill="#fff" fill-opacity="0.55"></circle><circle cx="1077" cy="571" r="1.6" fill="#fff" fill-opacity="0.81"><animate attributeName="fill-opacity" values="0.81;0.08;0.81" dur="3.4s" repeatCount="indefinite"/></circle><circle cx="1079" cy="685" r="0.7" fill="#fff" fill-opacity="0.28"></circle><circle cx="89" cy="200" r="0.6" fill="#fff" fill-opacity="0.64"></circle><circle cx="1027" cy="131" r="1.4" fill="#fff" fill-opacity="0.63"><animate attributeName="fill-opacity" values="0.63;0.08;0.63" dur="4.2s" repeatCount="indefinite"/></circle><circle cx="1107" cy="183" r="1.7" fill="#fff" fill-opacity="0.46"></circle><circle cx="1132" cy="679" r="0.7" fill="#fff" fill-opacity="0.48"></circle><circle cx="392" cy="164" r="0.9" fill="#fff" fill-opacity="0.67"><animate attributeName="fill-opacity" values="0.67;0.08;0.67" dur="3.4s" repeatCount="indefinite"/></circle><circle cx="507" cy="21" r="0.9" fill="#fff" fill-opacity="0.61"></circle><circle cx="79" cy="802" r="1.5" fill="#fff" fill-opacity="0.83"><animate attributeName="fill-opacity" values="0.83;0.08;0.83" dur="2.7s" repeatCount="indefinite"/></circle><circle cx="51" cy="635" r="0.9" fill="#fff" fill-opacity="0.28"></circle><circle cx="1043" cy="668" r="0.8" fill="#fff" fill-opacity="0.30"></circle><circle cx="655" cy="572" r="0.6" fill="#fff" fill-opacity="0.24"></circle><circle cx="490" cy="65" r="1.7" fill="#fff" fill-opacity="0.61"></circle><circle cx="101" cy="698" r="0.6" fill="#fff" fill-opacity="0.76"></circle><circle cx="392" cy="453" r="1.7" fill="#fff" fill-opacity="0.37"><animate attributeName="fill-opacity" values="0.37;0.08;0.37" dur="3.3s" repeatCount="indefinite"/></circle><circle cx="277" cy="94" r="0.7" fill="#fff" fill-opacity="0.23"><animate attributeName="fill-opacity" values="0.23;0.08;0.23" dur="2.8s" repeatCount="indefinite"/></circle><circle cx="353" cy="620" r="0.9" fill="#fff" fill-opacity="0.53"><animate attributeName="fill-opacity" values="0.53;0.08;0.53" dur="2.9s" repeatCount="indefinite"/></circle><circle cx="27" cy="208" r="0.5" fill="#fff" fill-opacity="0.68"></circle><circle cx="222" cy="390" r="1.7" fill="#fff" fill-opacity="0.27"></circle><circle cx="498" cy="406" r="1.6" fill="#fff" fill-opacity="0.46"></circle><circle cx="789" cy="800" r="0.9" fill="#fff" fill-opacity="0.74"></circle><circle cx="730" cy="333" r="1.0" fill="#fff" fill-opacity="0.24"><animate attributeName="fill-opacity" values="0.24;0.08;0.24" dur="2.2s" repeatCount="indefinite"/></circle><circle cx="849" cy="213" r="0.7" fill="#fff" fill-opacity="0.25"></circle><circle cx="997" cy="548" r="0.9" fill="#fff" fill-opacity="0.36"><animate attributeName="fill-opacity" values="0.36;0.08;0.36" dur="3.1s" repeatCount="indefinite"/></circle><circle cx="185" cy="366" r="0.8" fill="#fff" fill-opacity="0.83"></circle><circle cx="629" cy="204" r="1.8" fill="#fff" fill-opacity="0.40"><animate attributeName="fill-opacity" values="0.40;0.08;0.40" dur="2.0s" repeatCount="indefinite"/></circle><circle cx="440" cy="390" r="1.2" fill="#fff" fill-opacity="0.33"></circle><circle cx="12" cy="219" r="0.6" fill="#fff" fill-opacity="0.46"><animate attributeName="fill-opacity" values="0.46;0.08;0.46" dur="2.1s" repeatCount="indefinite"/></circle><circle cx="352" cy="194" r="1.3" fill="#fff" fill-opacity="0.54"></circle><circle cx="754" cy="585" r="1.6" fill="#fff" fill-opacity="0.45"><animate attributeName="fill-opacity" values="0.45;0.08;0.45" dur="4.5s" repeatCount="indefinite"/></circle><circle cx="176" cy="591" r="1.3" fill="#fff" fill-opacity="0.23"></circle><circle cx="1021" cy="513" r="1.5" fill="#fff" fill-opacity="0.73"><animate attributeName="fill-opacity" values="0.73;0.08;0.73" dur="3.3s" repeatCount="indefinite"/></circle><circle cx="580" cy="681" r="1.5" fill="#fff" fill-opacity="0.74"></circle><circle cx="1022" cy="558" r="1.4" fill="#fff" fill-opacity="0.35"><animate attributeName="fill-opacity" values="0.35;0.08;0.35" dur="2.3s" repeatCount="indefinite"/></circle><circle cx="416" cy="91" r="1.6" fill="#fff" fill-opacity="0.56"></circle><circle cx="719" cy="556" r="1.1" fill="#fff" fill-opacity="0.20"></circle><circle cx="858" cy="412" r="1.2" fill="#fff" fill-opacity="0.63"><animate attributeName="fill-opacity" values="0.63;0.08;0.63" dur="3.8s" repeatCount="indefinite"/></circle><circle cx="293" cy="66" r="0.8" fill="#fff" fill-opacity="0.67"><animate attributeName="fill-opacity" values="0.67;0.08;0.67" dur="3.8s" repeatCount="indefinite"/></circle><circle cx="1116" cy="405" r="1.0" fill="#fff" fill-opacity="0.51"></circle><circle cx="879" cy="505" r="1.3" fill="#fff" fill-opacity="0.25"><animate attributeName="fill-opacity" values="0.25;0.08;0.25" dur="2.6s" repeatCount="indefinite"/></circle><circle cx="852" cy="252" r="1.2" fill="#fff" fill-opacity="0.21"><animate attributeName="fill-opacity" values="0.21;0.08;0.21" dur="2.7s" repeatCount="indefinite"/></circle><circle cx="771" cy="565" r="1.4" fill="#fff" fill-opacity="0.39"></circle><circle cx="535" cy="383" r="0.7" fill="#fff" fill-opacity="0.78"><animate attributeName="fill-opacity" values="0.78;0.08;0.78" dur="4.4s" repeatCount="indefinite"/></circle><circle cx="1071" cy="20" r="1.1" fill="#fff" fill-opacity="0.73"></circle><circle cx="517" cy="223" r="0.8" fill="#fff" fill-opacity="0.81"><animate attributeName="fill-opacity" values="0.81;0.08;0.81" dur="3.5s" repeatCount="indefinite"/></circle><circle cx="167" cy="429" r="1.7" fill="#fff" fill-opacity="0.29"></circle><circle cx="585" cy="723" r="1.4" fill="#fff" fill-opacity="0.35"></circle><circle cx="559" cy="26" r="0.5" fill="#fff" fill-opacity="0.52"></circle><circle cx="350" cy="120" r="0.9" fill="#fff" fill-opacity="0.41"></circle><circle cx="8" cy="613" r="1.6" fill="#fff" fill-opacity="0.28"></circle><circle cx="817" cy="734" r="0.9" fill="#fff" fill-opacity="0.44"><animate attributeName="fill-opacity" values="0.44;0.08;0.44" dur="4.5s" repeatCount="indefinite"/></circle><circle cx="676" cy="297" r="1.1" fill="#fff" fill-opacity="0.38"><animate attributeName="fill-opacity" values="0.38;0.08;0.38" dur="2.3s" repeatCount="indefinite"/></circle><circle cx="956" cy="237" r="1.7" fill="#fff" fill-opacity="0.36"><animate attributeName="fill-opacity" values="0.36;0.08;0.36" dur="3.3s" repeatCount="indefinite"/></circle><circle cx="222" cy="308" r="1.7" fill="#fff" fill-opacity="0.77"></circle><circle cx="724" cy="744" r="1.7" fill="#fff" fill-opacity="0.56"></circle><circle cx="62" cy="598" r="1.1" fill="#fff" fill-opacity="0.69"></circle><circle cx="332" cy="46" r="1.7" fill="#fff" fill-opacity="0.28"></circle><circle cx="397" cy="247" r="1.5" fill="#fff" fill-opacity="0.83"><animate attributeName="fill-opacity" values="0.83;0.08;0.83" dur="3.6s" repeatCount="indefinite"/></circle></g><use xlink:href="#orb0" fill="none" stroke="#60a5fa" stroke-opacity="0.45" stroke-width="1.6"/><use xlink:href="#orb1" fill="none" stroke="#c084fc" stroke-opacity="0.45" stroke-width="1.6"/><use xlink:href="#orb2" fill="none" stroke="#34d399" stroke-opacity="0.45" stroke-width="1.6"/><use xlink:href="#orb3" fill="none" stroke="#fbbf24" stroke-opacity="0.45" stroke-width="1.6"/><use xlink:href="#orb4" fill="none" stroke="#f472b6" stroke-opacity="0.45" stroke-width="1.6"/><use xlink:href="#orb5" fill="none" stroke="#2dd4bf" stroke-opacity="0.45" stroke-width="1.6"/><g><g><animateMotion dur="17.1s" repeatCount="indefinite" rotate="0" calcMode="linear" keyTimes="0;1" keyPoints="0;1" begin="-0.00s"><mpath xlink:href="#orb0"/></animateMotion><circle r="23" fill="#3776AB" stroke="#ffffff" stroke-opacity="0.45" stroke-width="1.4"/><g transform="translate(-12.5,-12.5) scale(1.0417)" fill="#ffffff"><path d="M14.25.18l.9.2.73.26.59.3.45.32.34.34.25.34.16.33.1.3.04.26.02.2-.01.13V8.5l-.05.63-.13.55-.21.46-.26.38-.3.31-.33.25-.35.19-.35.14-.33.1-.3.07-.26.04-.21.02H8.77l-.69.05-.59.14-.5.22-.41.27-.33.32-.27.35-.2.36-.15.37-.1.35-.07.32-.04.27-.02.21v3.06H3.17l-.21-.03-.28-.07-.32-.12-.35-.18-.36-.26-.36-.36-.35-.46-.32-.59-.28-.73-.21-.88-.14-1.05-.05-1.23.06-1.22.16-1.04.24-.87.32-.71.36-.57.4-.44.42-.33.42-.24.4-.16.36-.1.32-.05.24-.01h.16l.06.01h8.16v-.83H6.18l-.01-2.75-.02-.37.05-.34.11-.31.17-.28.25-.26.31-.23.38-.2.44-.18.51-.15.58-.12.64-.1.71-.06.77-.04.84-.02 1.27.05zm-6.3 1.98l-.23.33-.08.41.08.41.23.34.33.22.41.09.41-.09.33-.22.23-.34.08-.41-.08-.41-.23-.33-.33-.22-.41-.09-.41.09zm13.09 3.95l.28.06.32.12.35.18.36.27.36.35.35.47.32.59.28.73.21.88.14 1.04.05 1.23-.06 1.23-.16 1.04-.24.86-.32.71-.36.57-.4.45-.42.33-.42.24-.4.16-.36.09-.32.05-.24.02-.16-.01h-8.22v.82h5.84l.01 2.76.02.36-.05.34-.11.31-.17.29-.25.25-.31.24-.38.2-.44.17-.51.15-.58.13-.64.09-.71.07-.77.04-.84.01-1.27-.04-1.07-.14-.9-.2-.73-.25-.59-.3-.45-.33-.34-.34-.25-.34-.16-.33-.1-.3-.04-.25-.02-.2.01-.13v-5.34l.05-.64.13-.54.21-.46.26-.38.3-.32.33-.24.35-.2.35-.14.33-.1.3-.06.26-.04.21-.02.13-.01h5.84l.69-.05.59-.14.5-.21.41-.28.33-.32.27-.35.2-.36.15-.36.1-.35.07-.32.04-.28.02-.21V6.07h2.09l.14.01zm-6.47 14.25l-.23.33-.08.41.08.41.23.33.33.23.41.08.41-.08.33-.23.23-.33.08-.41-.08-.41-.23-.33-.33-.23-.41-.08-.41.08z"/></g></g><g><animateMotion dur="17.1s" repeatCount="indefinite" rotate="0" calcMode="linear" keyTimes="0;1" keyPoints="0;1" begin="-4.28s"><mpath xlink:href="#orb0"/></animateMotion><circle r="23" fill="#3178C6" stroke="#ffffff" stroke-opacity="0.45" stroke-width="1.4"/><g transform="translate(-12.5,-12.5) scale(1.0417)" fill="#ffffff"><path d="M1.125 0C.502 0 0 .502 0 1.125v21.75C0 23.498.502 24 1.125 24h21.75c.623 0 1.125-.502 1.125-1.125V1.125C24 .502 23.498 0 22.875 0zm17.363 9.75c.612 0 1.154.037 1.627.111a6.38 6.38 0 0 1 1.306.34v2.458a3.95 3.95 0 0 0-.643-.361 5.093 5.093 0 0 0-.717-.26 5.453 5.453 0 0 0-1.426-.2c-.3 0-.573.028-.819.086a2.1 2.1 0 0 0-.623.242c-.17.104-.3.229-.393.374a.888.888 0 0 0-.14.49c0 .196.053.373.156.529.104.156.252.304.443.444s.423.276.696.41c.273.135.582.274.926.416.47.197.892.407 1.266.628.374.222.695.473.963.753.268.279.472.598.614.957.142.359.214.776.214 1.253 0 .657-.125 1.21-.373 1.656a3.033 3.033 0 0 1-1.012 1.085 4.38 4.38 0 0 1-1.487.596c-.566.12-1.163.18-1.79.18a9.916 9.916 0 0 1-1.84-.164 5.544 5.544 0 0 1-1.512-.493v-2.63a5.033 5.033 0 0 0 3.237 1.2c.333 0 .624-.03.872-.09.249-.06.456-.144.623-.25.166-.108.29-.234.373-.38a1.023 1.023 0 0 0-.074-1.089 2.12 2.12 0 0 0-.537-.5 5.597 5.597 0 0 0-.807-.444 27.72 27.72 0 0 0-1.007-.436c-.918-.383-1.602-.852-2.053-1.405-.45-.553-.676-1.222-.676-2.005 0-.614.123-1.141.369-1.582.246-.441.58-.804 1.004-1.089a4.494 4.494 0 0 1 1.47-.629 7.536 7.536 0 0 1 1.77-.201zm-15.113.188h9.563v2.166H9.506v9.646H6.789v-9.646H3.375z"/></g></g><g><animateMotion dur="17.1s" repeatCount="indefinite" rotate="0" calcMode="linear" keyTimes="0;1" keyPoints="0;1" begin="-8.55s"><mpath xlink:href="#orb0"/></animateMotion><circle r="23" fill="#F7DF1E" stroke="#ffffff" stroke-opacity="0.45" stroke-width="1.4"/><g transform="translate(-12.5,-12.5) scale(1.0417)" fill="#000000"><path d="M0 0h24v24H0V0zm22.034 18.276c-.175-1.095-.888-2.015-3.003-2.873-.736-.345-1.554-.585-1.797-1.14-.091-.33-.105-.51-.046-.705.15-.646.915-.84 1.515-.66.39.12.75.42.976.9 1.034-.676 1.034-.676 1.755-1.125-.27-.42-.404-.601-.586-.78-.63-.705-1.469-1.065-2.834-1.034l-.705.089c-.676.165-1.32.525-1.71 1.005-1.14 1.291-.811 3.541.569 4.471 1.365 1.02 3.361 1.244 3.616 2.205.24 1.17-.87 1.545-1.966 1.41-.811-.18-1.26-.586-1.755-1.336l-1.83 1.051c.21.48.45.689.81 1.109 1.74 1.756 6.09 1.666 6.871-1.004.029-.09.24-.705.074-1.65l.046.067zm-8.983-7.245h-2.248c0 1.938-.009 3.864-.009 5.805 0 1.232.063 2.363-.138 2.711-.33.689-1.18.601-1.566.48-.396-.196-.597-.466-.83-.855-.063-.105-.11-.196-.127-.196l-1.825 1.125c.305.63.75 1.172 1.324 1.517.855.51 2.004.675 3.207.405.783-.226 1.458-.691 1.811-1.411.51-.93.402-2.07.397-3.346.012-2.054 0-4.109 0-6.179l.004-.056z"/></g></g><g><animateMotion dur="17.1s" repeatCount="indefinite" rotate="0" calcMode="linear" keyTimes="0;1" keyPoints="0;1" begin="-12.83s"><mpath xlink:href="#orb0"/></animateMotion><circle r="23" fill="#00599C" stroke="#ffffff" stroke-opacity="0.45" stroke-width="1.4"/><g transform="translate(-12.5,-12.5) scale(1.0417)" fill="#ffffff"><path d="M22.394 6c-.167-.29-.398-.543-.652-.69L12.926.22c-.509-.294-1.34-.294-1.848 0L2.26 5.31c-.508.293-.923 1.013-.923 1.6v10.18c0 .294.104.62.271.91.167.29.398.543.652.69l8.816 5.09c.508.293 1.34.293 1.848 0l8.816-5.09c.254-.147.485-.4.652-.69.167-.29.27-.616.27-.91V6.91c.003-.294-.1-.62-.268-.91zM12 19.11c-3.92 0-7.109-3.19-7.109-7.11 0-3.92 3.19-7.11 7.11-7.11a7.133 7.133 0 016.156 3.553l-3.076 1.78a3.567 3.567 0 00-3.08-1.78A3.56 3.56 0 008.444 12 3.56 3.56 0 0012 15.555a3.57 3.57 0 003.08-1.778l3.078 1.78A7.135 7.135 0 0112 19.11zm7.11-6.715h-.79v.79h-.79v-.79h-.79v-.79h.79v-.79h.79v.79h.79zm2.962 0h-.79v.79h-.79v-.79h-.79v-.79h.79v-.79h.79v.79h.79z"/></g></g></g><g><g><animateMotion dur="25.8s" repeatCount="indefinite" rotate="0" calcMode="linear" keyTimes="0;1" keyPoints="1;0" begin="-0.00s"><mpath xlink:href="#orb1"/></animateMotion><circle r="23" fill="#EE4C2C" stroke="#ffffff" stroke-opacity="0.45" stroke-width="1.4"/><g transform="translate(-12.5,-12.5) scale(1.0417)" fill="#ffffff"><path d="M12.005 0L4.952 7.053a9.865 9.865 0 000 14.022 9.866 9.866 0 0014.022 0c3.984-3.9 3.986-10.205.085-14.023l-1.744 1.743c2.904 2.905 2.904 7.634 0 10.538s-7.634 2.904-10.538 0-2.904-7.634 0-10.538l4.647-4.646.582-.665zm3.568 3.899a1.327 1.327 0 00-1.327 1.327 1.327 1.327 0 001.327 1.328A1.327 1.327 0 0016.9 5.226 1.327 1.327 0 0015.573 3.9z"/></g></g><g><animateMotion dur="25.8s" repeatCount="indefinite" rotate="0" calcMode="linear" keyTimes="0;1" keyPoints="1;0" begin="-6.45s"><mpath xlink:href="#orb1"/></animateMotion><circle r="23" fill="#FFFFFF" stroke="#ffffff" stroke-opacity="0.45" stroke-width="1.4"/><g transform="translate(-12.5,-12.5) scale(1.0417)" fill="#000000"><path d="M22.2819 9.8211a5.9847 5.9847 0 0 0-.5157-4.9108 6.0462 6.0462 0 0 0-6.5098-2.9A6.0651 6.0651 0 0 0 4.9807 4.1818a5.9847 5.9847 0 0 0-3.9977 2.9 6.0462 6.0462 0 0 0 .7427 7.0966 5.98 5.98 0 0 0 .511 4.9107 6.051 6.051 0 0 0 6.5146 2.9001A5.9847 5.9847 0 0 0 13.2599 24a6.0557 6.0557 0 0 0 5.7718-4.2058 5.9894 5.9894 0 0 0 3.9977-2.9001 6.0557 6.0557 0 0 0-.7475-7.0729zm-9.022 12.6081a4.4755 4.4755 0 0 1-2.8764-1.0408l.1419-.0804 4.7783-2.7582a.7948.7948 0 0 0 .3927-.6813v-6.7369l2.02 1.1686a.071.071 0 0 1 .038.052v5.5826a4.504 4.504 0 0 1-4.4945 4.4944zm-9.6607-4.1254a4.4708 4.4708 0 0 1-.5346-3.0137l.142.0852 4.783 2.7582a.7712.7712 0 0 0 .7806 0l5.8428-3.3685v2.3324a.0804.0804 0 0 1-.0332.0615L9.74 19.9502a4.4992 4.4992 0 0 1-6.1408-1.6464zM2.3408 7.8956a4.485 4.485 0 0 1 2.3655-1.9728V11.6a.7664.7664 0 0 0 .3879.6765l5.8144 3.3543-2.0201 1.1685a.0757.0757 0 0 1-.071 0l-4.8303-2.7865A4.504 4.504 0 0 1 2.3408 7.872zm16.5963 3.8558L13.1038 8.364 15.1192 7.2a.0757.0757 0 0 1 .071 0l4.8303 2.7913a4.4944 4.4944 0 0 1-.6765 8.1042v-5.6772a.79.79 0 0 0-.407-.667zm2.0107-3.0231l-.142-.0852-4.7735-2.7818a.7759.7759 0 0 0-.7854 0L9.409 9.2297V6.8974a.0662.0662 0 0 1 .0284-.0615l4.8303-2.7866a4.4992 4.4992 0 0 1 6.6802 4.66zM8.3065 12.863l-2.02-1.1638a.0804.0804 0 0 1-.038-.0567V6.0742a4.4992 4.4992 0 0 1 7.3757-3.4537l-.142.0805L8.704 5.459a.7948.7948 0 0 0-.3927.6813zm1.0976-2.3654l2.602-1.4998 2.6069 1.4998v2.9994l-2.5974 1.4997-2.6067-1.4997Z"/></g></g><g><animateMotion dur="25.8s" repeatCount="indefinite" rotate="0" calcMode="linear" keyTimes="0;1" keyPoints="1;0" begin="-12.90s"><mpath xlink:href="#orb1"/></animateMotion><circle r="23" fill="#1C3C3C" stroke="#ffffff" stroke-opacity="0.45" stroke-width="1.4"/><g transform="translate(-12.5,-12.5) scale(1.0417)" fill="#ffffff"><path d="M13.796 0a6.93 6.93 0 0 0-4.91 2.019L5.451 5.455l3.273 3.27 3.432-3.432a2.284 2.284 0 0 1 3.277 0 2.28 2.28 0 0 1 0 3.275L12 12.001l3.273 3.273 3.433-3.435c2.692-2.692 2.692-7.127 0-9.82A6.92 6.92 0 0 0 13.796 0m-5.07 8.728-3.433 3.434c-2.692 2.693-2.692 7.126 0 9.819A6.92 6.92 0 0 0 10.203 24a6.93 6.93 0 0 0 4.911-2.02l3.432-3.432-3.271-3.272-3.433 3.433a2.284 2.284 0 0 1-3.277 0 2.28 2.28 0 0 1 0-3.276L12 12z"/></g></g><g><animateMotion dur="25.8s" repeatCount="indefinite" rotate="0" calcMode="linear" keyTimes="0;1" keyPoints="1;0" begin="-19.35s"><mpath xlink:href="#orb1"/></animateMotion><circle r="23" fill="#FFD21E" stroke="#ffffff" stroke-opacity="0.45" stroke-width="1.4"/><g transform="translate(-12.5,-12.5) scale(1.0417)" fill="#000000"><path d="M12.025 1.13c-5.77 0-10.449 4.647-10.449 10.378 0 1.112.178 2.181.503 3.185.064-.222.203-.444.416-.577a.96.96 0 0 1 .524-.15c.293 0 .584.124.84.284.278.173.48.408.71.694.226.282.458.611.684.951v-.014c.017-.324.106-.622.264-.874s.403-.487.762-.543c.3-.047.596.06.787.203s.31.313.4.467c.15.257.212.468.233.542.01.026.653 1.552 1.657 2.54.616.605 1.01 1.223 1.082 1.912.055.537-.096 1.059-.38 1.572.637.121 1.294.187 1.967.187.657 0 1.298-.063 1.921-.178-.287-.517-.44-1.041-.384-1.581.07-.69.465-1.307 1.081-1.913 1.004-.987 1.647-2.513 1.657-2.539.021-.074.083-.285.233-.542.09-.154.208-.323.4-.467a1.08 1.08 0 0 1 .787-.203c.359.056.604.29.762.543s.247.55.265.874v.015c.225-.34.457-.67.683-.952.23-.286.432-.52.71-.694.257-.16.547-.284.84-.285a.97.97 0 0 1 .524.151c.228.143.373.388.43.625l.006.04a10.3 10.3 0 0 0 .534-3.273c0-5.731-4.678-10.378-10.449-10.378M8.327 6.583a1.5 1.5 0 0 1 .713.174 1.487 1.487 0 0 1 .617 2.013c-.183.343-.762-.214-1.102-.094-.38.134-.532.914-.917.71a1.487 1.487 0 0 1 .69-2.803m7.486 0a1.487 1.487 0 0 1 .689 2.803c-.385.204-.536-.576-.916-.71-.34-.12-.92.437-1.103.094a1.487 1.487 0 0 1 .617-2.013 1.5 1.5 0 0 1 .713-.174m-10.68 1.55a.96.96 0 1 1 0 1.921.96.96 0 0 1 0-1.92m13.838 0a.96.96 0 1 1 0 1.92.96.96 0 0 1 0-1.92M8.489 11.458c.588.01 1.965 1.157 3.572 1.164 1.607-.007 2.984-1.155 3.572-1.164.196-.003.305.12.305.454 0 .886-.424 2.328-1.563 3.202-.22-.756-1.396-1.366-1.63-1.32q-.011.001-.02.006l-.044.026-.01.008-.03.024q-.018.017-.035.036l-.032.04a1 1 0 0 0-.058.09l-.014.025q-.049.088-.11.19a1 1 0 0 1-.083.116 1.2 1.2 0 0 1-.173.18q-.035.029-.075.058a1.3 1.3 0 0 1-.251-.243 1 1 0 0 1-.076-.107c-.124-.193-.177-.363-.337-.444-.034-.016-.104-.008-.2.022q-.094.03-.216.087-.06.028-.125.063l-.13.074q-.067.04-.136.086a3 3 0 0 0-.135.096 3 3 0 0 0-.26.219 2 2 0 0 0-.12.121 2 2 0 0 0-.106.128l-.002.002a2 2 0 0 0-.09.132l-.001.001a1.2 1.2 0 0 0-.105.212q-.013.036-.024.073c-1.139-.875-1.563-2.317-1.563-3.203 0-.334.109-.457.305-.454m.836 10.354c.824-1.19.766-2.082-.365-3.194-1.13-1.112-1.789-2.738-1.789-2.738s-.246-.945-.806-.858-.97 1.499.202 2.362c1.173.864-.233 1.45-.685.64-.45-.812-1.683-2.896-2.322-3.295s-1.089-.175-.938.647 2.822 2.813 2.562 3.244-1.176-.506-1.176-.506-2.866-2.567-3.49-1.898.473 1.23 2.037 2.16c1.564.932 1.686 1.178 1.464 1.53s-3.675-2.511-4-1.297c-.323 1.214 3.524 1.567 3.287 2.405-.238.839-2.71-1.587-3.216-.642-.506.946 3.49 2.056 3.522 2.064 1.29.33 4.568 1.028 5.713-.624m5.349 0c-.824-1.19-.766-2.082.365-3.194 1.13-1.112 1.789-2.738 1.789-2.738s.246-.945.806-.858.97 1.499-.202 2.362c-1.173.864.233 1.45.685.64.451-.812 1.683-2.896 2.322-3.295s1.089-.175.938.647-2.822 2.813-2.562 3.244 1.176-.506 1.176-.506 2.866-2.567 3.49-1.898-.473 1.23-2.037 2.16c-1.564.932-1.686 1.178-1.464 1.53s3.675-2.511 4-1.297c.323 1.214-3.524 1.567-3.287 2.405.238.839 2.71-1.587 3.216-.642.506.946-3.49 2.056-3.522 2.064-1.29.33-4.568 1.028-5.713-.624"/></g></g></g><g><g><animateMotion dur="34.6s" repeatCount="indefinite" rotate="0" calcMode="linear" keyTimes="0;1" keyPoints="0;1" begin="-0.00s"><mpath xlink:href="#orb2"/></animateMotion><circle r="23" fill="#61DAFB" stroke="#ffffff" stroke-opacity="0.45" stroke-width="1.4"/><g transform="translate(-12.5,-12.5) scale(1.0417)" fill="#000000"><path d="M14.23 12.004a2.236 2.236 0 0 1-2.235 2.236 2.236 2.236 0 0 1-2.236-2.236 2.236 2.236 0 0 1 2.235-2.236 2.236 2.236 0 0 1 2.236 2.236zm2.648-10.69c-1.346 0-3.107.96-4.888 2.622-1.78-1.653-3.542-2.602-4.887-2.602-.41 0-.783.093-1.106.278-1.375.793-1.683 3.264-.973 6.365C1.98 8.917 0 10.42 0 12.004c0 1.59 1.99 3.097 5.043 4.03-.704 3.113-.39 5.588.988 6.38.32.187.69.275 1.102.275 1.345 0 3.107-.96 4.888-2.624 1.78 1.654 3.542 2.603 4.887 2.603.41 0 .783-.09 1.106-.275 1.374-.792 1.683-3.263.973-6.365C22.02 15.096 24 13.59 24 12.004c0-1.59-1.99-3.097-5.043-4.032.704-3.11.39-5.587-.988-6.38-.318-.184-.688-.277-1.092-.278zm-.005 1.09v.006c.225 0 .406.044.558.127.666.382.955 1.835.73 3.704-.054.46-.142.945-.25 1.44-.96-.236-2.006-.417-3.107-.534-.66-.905-1.345-1.727-2.035-2.447 1.592-1.48 3.087-2.292 4.105-2.295zm-9.77.02c1.012 0 2.514.808 4.11 2.28-.686.72-1.37 1.537-2.02 2.442-1.107.117-2.154.298-3.113.538-.112-.49-.195-.964-.254-1.42-.23-1.868.054-3.32.714-3.707.19-.09.4-.127.563-.132zm4.882 3.05c.455.468.91.992 1.36 1.564-.44-.02-.89-.034-1.345-.034-.46 0-.915.01-1.36.034.44-.572.895-1.096 1.345-1.565zM12 8.1c.74 0 1.477.034 2.202.093.406.582.802 1.203 1.183 1.86.372.64.71 1.29 1.018 1.946-.308.655-.646 1.31-1.013 1.95-.38.66-.773 1.288-1.18 1.87-.728.063-1.466.098-2.21.098-.74 0-1.477-.035-2.202-.093-.406-.582-.802-1.204-1.183-1.86-.372-.64-.71-1.29-1.018-1.946.303-.657.646-1.313 1.013-1.954.38-.66.773-1.286 1.18-1.868.728-.064 1.466-.098 2.21-.098zm-3.635.254c-.24.377-.48.763-.704 1.16-.225.39-.435.782-.635 1.174-.265-.656-.49-1.31-.676-1.947.64-.15 1.315-.283 2.015-.386zm7.26 0c.695.103 1.365.23 2.006.387-.18.632-.405 1.282-.66 1.933-.2-.39-.41-.783-.64-1.174-.225-.392-.465-.774-.705-1.146zm3.063.675c.484.15.944.317 1.375.498 1.732.74 2.852 1.708 2.852 2.476-.005.768-1.125 1.74-2.857 2.475-.42.18-.88.342-1.355.493-.28-.958-.646-1.956-1.1-2.98.45-1.017.81-2.01 1.085-2.964zm-13.395.004c.278.96.645 1.957 1.1 2.98-.45 1.017-.812 2.01-1.086 2.964-.484-.15-.944-.318-1.37-.5-1.732-.737-2.852-1.706-2.852-2.474 0-.768 1.12-1.742 2.852-2.476.42-.18.88-.342 1.356-.494zm11.678 4.28c.265.657.49 1.312.676 1.948-.64.157-1.316.29-2.016.39.24-.375.48-.762.705-1.158.225-.39.435-.788.636-1.18zm-9.945.02c.2.392.41.783.64 1.175.23.39.465.772.705 1.143-.695-.102-1.365-.23-2.006-.386.18-.63.406-1.282.66-1.933zM17.92 16.32c.112.493.2.968.254 1.423.23 1.868-.054 3.32-.714 3.708-.147.09-.338.128-.563.128-1.012 0-2.514-.807-4.11-2.28.686-.72 1.37-1.536 2.02-2.44 1.107-.118 2.154-.3 3.113-.54zm-11.83.01c.96.234 2.006.415 3.107.532.66.905 1.345 1.727 2.035 2.446-1.595 1.483-3.092 2.295-4.11 2.295-.22-.005-.406-.05-.553-.132-.666-.38-.955-1.834-.73-3.703.054-.46.142-.944.25-1.438zm4.56.64c.44.02.89.034 1.345.034.46 0 .915-.01 1.36-.034-.44.572-.895 1.095-1.345 1.565-.455-.47-.91-.993-1.36-1.565z"/></g></g><g><animateMotion dur="34.6s" repeatCount="indefinite" rotate="0" calcMode="linear" keyTimes="0;1" keyPoints="0;1" begin="-8.65s"><mpath xlink:href="#orb2"/></animateMotion><circle r="23" fill="#FFFFFF" stroke="#ffffff" stroke-opacity="0.45" stroke-width="1.4"/><g transform="translate(-12.5,-12.5) scale(1.0417)" fill="#000000"><path d="M18.665 21.978C16.758 23.255 14.465 24 12 24 5.377 24 0 18.623 0 12S5.377 0 12 0s12 5.377 12 12c0 3.583-1.574 6.801-4.067 9.001L9.219 7.2H7.2v9.596h1.615V9.251l9.85 12.727Zm-3.332-8.533 1.6 2.061V7.2h-1.6v6.245Z"/></g></g><g><animateMotion dur="34.6s" repeatCount="indefinite" rotate="0" calcMode="linear" keyTimes="0;1" keyPoints="0;1" begin="-17.30s"><mpath xlink:href="#orb2"/></animateMotion><circle r="23" fill="#5FA04E" stroke="#ffffff" stroke-opacity="0.45" stroke-width="1.4"/><g transform="translate(-12.5,-12.5) scale(1.0417)" fill="#ffffff"><path d="M11.998,24c-0.321,0-0.641-0.084-0.922-0.247l-2.936-1.737c-0.438-0.245-0.224-0.332-0.08-0.383 c0.585-0.203,0.703-0.25,1.328-0.604c0.065-0.037,0.151-0.023,0.218,0.017l2.256,1.339c0.082,0.045,0.197,0.045,0.272,0l8.795-5.076 c0.082-0.047,0.134-0.141,0.134-0.238V6.921c0-0.099-0.053-0.192-0.137-0.242l-8.791-5.072c-0.081-0.047-0.189-0.047-0.271,0 L3.075,6.68C2.99,6.729,2.936,6.825,2.936,6.921v10.15c0,0.097,0.054,0.189,0.139,0.235l2.409,1.392 c1.307,0.654,2.108-0.116,2.108-0.89V7.787c0-0.142,0.114-0.253,0.256-0.253h1.115c0.139,0,0.255,0.112,0.255,0.253v10.021 c0,1.745-0.95,2.745-2.604,2.745c-0.508,0-0.909,0-2.026-0.551L2.28,18.675c-0.57-0.329-0.922-0.945-0.922-1.604V6.921 c0-0.659,0.353-1.275,0.922-1.603l8.795-5.082c0.557-0.315,1.296-0.315,1.848,0l8.794,5.082c0.57,0.329,0.924,0.944,0.924,1.603 v10.15c0,0.659-0.354,1.273-0.924,1.604l-8.794,5.078C12.643,23.916,12.324,24,11.998,24z M19.099,13.993 c0-1.9-1.284-2.406-3.987-2.763c-2.731-0.361-3.009-0.548-3.009-1.187c0-0.528,0.235-1.233,2.258-1.233 c1.807,0,2.473,0.389,2.747,1.607c0.024,0.115,0.129,0.199,0.247,0.199h1.141c0.071,0,0.138-0.031,0.186-0.081 c0.048-0.054,0.074-0.123,0.067-0.196c-0.177-2.098-1.571-3.076-4.388-3.076c-2.508,0-4.004,1.058-4.004,2.833 c0,1.925,1.488,2.457,3.895,2.695c2.88,0.282,3.103,0.703,3.103,1.269c0,0.983-0.789,1.402-2.642,1.402 c-2.327,0-2.839-0.584-3.011-1.742c-0.02-0.124-0.126-0.215-0.253-0.215h-1.137c-0.141,0-0.254,0.112-0.254,0.253 c0,1.482,0.806,3.248,4.655,3.248C17.501,17.007,19.099,15.91,19.099,13.993z"/></g></g><g><animateMotion dur="34.6s" repeatCount="indefinite" rotate="0" calcMode="linear" keyTimes="0;1" keyPoints="0;1" begin="-25.95s"><mpath xlink:href="#orb2"/></animateMotion><circle r="23" fill="#009688" stroke="#ffffff" stroke-opacity="0.45" stroke-width="1.4"/><g transform="translate(-12.5,-12.5) scale(1.0417)" fill="#ffffff"><path d="M12 .0387C5.3729.0384.0003 5.3931 0 11.9988c-.001 6.6066 5.372 11.9628 12 11.9625 6.628.0003 12.001-5.3559 12-11.9625-.0003-6.6057-5.3729-11.9604-12-11.96m-.829 5.4153h7.55l-7.5805 5.3284h5.1828L5.279 18.5436q2.9466-6.5444 5.892-13.0896"/></g></g></g><g><g><animateMotion dur="44.2s" repeatCount="indefinite" rotate="0" calcMode="linear" keyTimes="0;1" keyPoints="1;0" begin="-0.00s"><mpath xlink:href="#orb3"/></animateMotion><circle r="23" fill="#2496ED" stroke="#ffffff" stroke-opacity="0.45" stroke-width="1.4"/><g transform="translate(-12.5,-12.5) scale(1.0417)" fill="#ffffff"><path d="M13.983 11.078h2.119a.186.186 0 00.186-.185V9.006a.186.186 0 00-.186-.186h-2.119a.185.185 0 00-.185.185v1.888c0 .102.083.185.185.185m-2.954-5.43h2.118a.186.186 0 00.186-.186V3.574a.186.186 0 00-.186-.185h-2.118a.185.185 0 00-.185.185v1.888c0 .102.082.185.185.185m0 2.716h2.118a.187.187 0 00.186-.186V6.29a.186.186 0 00-.186-.185h-2.118a.185.185 0 00-.185.185v1.887c0 .102.082.185.185.186m-2.93 0h2.12a.186.186 0 00.184-.186V6.29a.185.185 0 00-.185-.185H8.1a.185.185 0 00-.185.185v1.887c0 .102.083.185.185.186m-2.964 0h2.119a.186.186 0 00.185-.186V6.29a.185.185 0 00-.185-.185H5.136a.186.186 0 00-.186.185v1.887c0 .102.084.185.186.186m5.893 2.715h2.118a.186.186 0 00.186-.185V9.006a.186.186 0 00-.186-.186h-2.118a.185.185 0 00-.185.185v1.888c0 .102.082.185.185.185m-2.93 0h2.12a.185.185 0 00.184-.185V9.006a.185.185 0 00-.184-.186h-2.12a.185.185 0 00-.184.185v1.888c0 .102.083.185.185.185m-2.964 0h2.119a.185.185 0 00.185-.185V9.006a.185.185 0 00-.184-.186h-2.12a.186.186 0 00-.186.186v1.887c0 .102.084.185.186.185m-2.92 0h2.12a.185.185 0 00.184-.185V9.006a.185.185 0 00-.184-.186h-2.12a.185.185 0 00-.184.185v1.888c0 .102.082.185.185.185M23.763 9.89c-.065-.051-.672-.51-1.954-.51-.338.001-.676.03-1.01.087-.248-1.7-1.653-2.53-1.716-2.566l-.344-.199-.226.327c-.284.438-.49.922-.612 1.43-.23.97-.09 1.882.403 2.661-.595.332-1.55.413-1.744.42H.751a.751.751 0 00-.75.748 11.376 11.376 0 00.692 4.062c.545 1.428 1.355 2.48 2.41 3.124 1.18.723 3.1 1.137 5.275 1.137.983.003 1.963-.086 2.93-.266a12.248 12.248 0 003.823-1.389c.98-.567 1.86-1.288 2.61-2.136 1.252-1.418 1.998-2.997 2.553-4.4h.221c1.372 0 2.215-.549 2.68-1.009.309-.293.55-.65.707-1.046l.098-.288Z"/></g></g><g><animateMotion dur="44.2s" repeatCount="indefinite" rotate="0" calcMode="linear" keyTimes="0;1" keyPoints="1;0" begin="-11.05s"><mpath xlink:href="#orb3"/></animateMotion><circle r="23" fill="#326CE5" stroke="#ffffff" stroke-opacity="0.45" stroke-width="1.4"/><g transform="translate(-12.5,-12.5) scale(1.0417)" fill="#ffffff"><path d="M10.204 14.35l.007.01-.999 2.413a5.171 5.171 0 0 1-2.075-2.597l2.578-.437.004.005a.44.44 0 0 1 .484.606zm-.833-2.129a.44.44 0 0 0 .173-.756l.002-.011L7.585 9.7a5.143 5.143 0 0 0-.73 3.255l2.514-.725.002-.009zm1.145-1.98a.44.44 0 0 0 .699-.337l.01-.005.15-2.62a5.144 5.144 0 0 0-3.01 1.442l2.147 1.523.004-.002zm.76 2.75l.723.349.722-.347.18-.78-.5-.623h-.804l-.5.623.179.779zm1.5-3.095a.44.44 0 0 0 .7.336l.008.003 2.134-1.513a5.188 5.188 0 0 0-2.992-1.442l.148 2.615.002.001zm10.876 5.97l-5.773 7.181a1.6 1.6 0 0 1-1.248.594l-9.261.003a1.6 1.6 0 0 1-1.247-.596l-5.776-7.18a1.583 1.583 0 0 1-.307-1.34L2.1 5.573c.108-.47.425-.864.863-1.073L11.305.513a1.606 1.606 0 0 1 1.385 0l8.345 3.985c.438.209.755.604.863 1.073l2.062 8.955c.108.47-.005.963-.308 1.34zm-3.289-2.057c-.042-.01-.103-.026-.145-.034-.174-.033-.315-.025-.479-.038-.35-.037-.638-.067-.895-.148-.105-.04-.18-.165-.216-.216l-.201-.059a6.45 6.45 0 0 0-.105-2.332 6.465 6.465 0 0 0-.936-2.163c.052-.047.15-.133.177-.159.008-.09.001-.183.094-.282.197-.185.444-.338.743-.522.142-.084.273-.137.415-.242.032-.024.076-.062.11-.089.24-.191.295-.52.123-.736-.172-.216-.506-.236-.745-.045-.034.027-.08.062-.111.088-.134.116-.217.23-.33.35-.246.25-.45.458-.673.609-.097.056-.239.037-.303.033l-.19.135a6.545 6.545 0 0 0-4.146-2.003l-.012-.223c-.065-.062-.143-.115-.163-.25-.022-.268.015-.557.057-.905.023-.163.061-.298.068-.475.001-.04-.001-.099-.001-.142 0-.306-.224-.555-.5-.555-.275 0-.499.249-.499.555l.001.014c0 .041-.002.092 0 .128.006.177.044.312.067.475.042.348.078.637.056.906a.545.545 0 0 1-.162.258l-.012.211a6.424 6.424 0 0 0-4.166 2.003 8.373 8.373 0 0 1-.18-.128c-.09.012-.18.04-.297-.029-.223-.15-.427-.358-.673-.608-.113-.12-.195-.234-.329-.349-.03-.026-.077-.062-.111-.088a.594.594 0 0 0-.348-.132.481.481 0 0 0-.398.176c-.172.216-.117.546.123.737l.007.005.104.083c.142.105.272.159.414.242.299.185.546.338.743.522.076.082.09.226.1.288l.16.143a6.462 6.462 0 0 0-1.02 4.506l-.208.06c-.055.072-.133.184-.215.217-.257.081-.546.11-.895.147-.164.014-.305.006-.48.039-.037.007-.09.02-.133.03l-.004.002-.007.002c-.295.071-.484.342-.423.608.061.267.349.429.645.365l.007-.001.01-.003.129-.029c.17-.046.294-.113.448-.172.33-.118.604-.217.87-.256.112-.009.23.069.288.101l.217-.037a6.5 6.5 0 0 0 2.88 3.596l-.09.218c.033.084.069.199.044.282-.097.252-.263.517-.452.813-.091.136-.185.242-.268.399-.02.037-.045.095-.064.134-.128.275-.034.591.213.71.248.12.556-.007.69-.282v-.002c.02-.039.046-.09.062-.127.07-.162.094-.301.144-.458.132-.332.205-.68.387-.897.05-.06.13-.082.215-.105l.113-.205a6.453 6.453 0 0 0 4.609.012l.106.192c.086.028.18.042.256.155.136.232.229.507.342.84.05.156.074.295.145.457.016.037.043.09.062.129.133.276.442.402.69.282.247-.118.341-.435.213-.71-.02-.039-.045-.096-.065-.134-.083-.156-.177-.261-.268-.398-.19-.296-.346-.541-.443-.793-.04-.13.007-.21.038-.294-.018-.022-.059-.144-.083-.202a6.499 6.499 0 0 0 2.88-3.622c.064.01.176.03.213.038.075-.05.144-.114.28-.104.266.039.54.138.87.256.154.06.277.128.448.173.036.01.088.019.13.028l.009.003.007.001c.297.064.584-.098.645-.365.06-.266-.128-.537-.423-.608zM16.4 9.701l-1.95 1.746v.005a.44.44 0 0 0 .173.757l.003.01 2.526.728a5.199 5.199 0 0 0-.108-1.674A5.208 5.208 0 0 0 16.4 9.7zm-4.013 5.325a.437.437 0 0 0-.404-.232.44.44 0 0 0-.372.233h-.002l-1.268 2.292a5.164 5.164 0 0 0 3.326.003l-1.27-2.296h-.01zm1.888-1.293a.44.44 0 0 0-.27.036.44.44 0 0 0-.214.572l-.003.004 1.01 2.438a5.15 5.15 0 0 0 2.081-2.615l-2.6-.44-.004.005z"/></g></g><g><animateMotion dur="44.2s" repeatCount="indefinite" rotate="0" calcMode="linear" keyTimes="0;1" keyPoints="1;0" begin="-22.10s"><mpath xlink:href="#orb3"/></animateMotion><circle r="23" fill="#FF9900" stroke="#ffffff" stroke-opacity="0.45" stroke-width="1.4"/><g transform="translate(-12.5,-12.5) scale(1.0417)" fill="#000000"><path d="M6.763 10.036c0 .296.032.535.088.71.064.176.144.368.256.576.04.063.056.127.056.183 0 .08-.048.16-.152.24l-.503.335a.383.383 0 0 1-.208.072c-.08 0-.16-.04-.239-.112a2.47 2.47 0 0 1-.287-.375 6.18 6.18 0 0 1-.248-.471c-.622.734-1.405 1.101-2.347 1.101-.67 0-1.205-.191-1.596-.574-.391-.384-.59-.894-.59-1.533 0-.678.239-1.23.726-1.644.487-.415 1.133-.623 1.955-.623.272 0 .551.024.846.064.296.04.6.104.918.176v-.583c0-.607-.127-1.03-.375-1.277-.255-.248-.686-.367-1.3-.367-.28 0-.568.031-.863.103-.295.072-.583.16-.862.272a2.287 2.287 0 0 1-.28.104.488.488 0 0 1-.127.023c-.112 0-.168-.08-.168-.247v-.391c0-.128.016-.224.056-.28a.597.597 0 0 1 .224-.167c.279-.144.614-.264 1.005-.36a4.84 4.84 0 0 1 1.246-.151c.95 0 1.644.216 2.091.647.439.43.662 1.085.662 1.963v2.586zm-3.24 1.214c.263 0 .534-.048.822-.144.287-.096.543-.271.758-.51.128-.152.224-.32.272-.512.047-.191.08-.423.08-.694v-.335a6.66 6.66 0 0 0-.735-.136 6.02 6.02 0 0 0-.75-.048c-.535 0-.926.104-1.19.32-.263.215-.39.518-.39.917 0 .375.095.655.295.846.191.2.47.296.838.296zm6.41.862c-.144 0-.24-.024-.304-.08-.064-.048-.12-.16-.168-.311L7.586 5.55a1.398 1.398 0 0 1-.072-.32c0-.128.064-.2.191-.2h.783c.151 0 .255.025.31.08.065.048.113.16.16.312l1.342 5.284 1.245-5.284c.04-.16.088-.264.151-.312a.549.549 0 0 1 .32-.08h.638c.152 0 .256.025.32.08.063.048.12.16.151.312l1.261 5.348 1.381-5.348c.048-.16.104-.264.16-.312a.52.52 0 0 1 .311-.08h.743c.127 0 .2.065.2.2 0 .04-.009.08-.017.128a1.137 1.137 0 0 1-.056.2l-1.923 6.17c-.048.16-.104.263-.168.311a.51.51 0 0 1-.303.08h-.687c-.151 0-.255-.024-.32-.08-.063-.056-.119-.16-.15-.32l-1.238-5.148-1.23 5.14c-.04.16-.087.264-.15.32-.065.056-.177.08-.32.08zm10.256.215c-.415 0-.83-.048-1.229-.143-.399-.096-.71-.2-.918-.32-.128-.071-.215-.151-.247-.223a.563.563 0 0 1-.048-.224v-.407c0-.167.064-.247.183-.247.048 0 .096.008.144.024.048.016.12.048.2.08.271.12.566.215.878.279.319.064.63.096.95.096.502 0 .894-.088 1.165-.264a.86.86 0 0 0 .415-.758.777.777 0 0 0-.215-.559c-.144-.151-.416-.287-.807-.415l-1.157-.36c-.583-.183-1.014-.454-1.277-.813a1.902 1.902 0 0 1-.4-1.158c0-.335.073-.63.216-.886.144-.255.335-.479.575-.654.24-.184.51-.32.83-.415.32-.096.655-.136 1.006-.136.175 0 .359.008.535.032.183.024.35.056.518.088.16.04.312.08.455.127.144.048.256.096.336.144a.69.69 0 0 1 .24.2.43.43 0 0 1 .071.263v.375c0 .168-.064.256-.184.256a.83.83 0 0 1-.303-.096 3.652 3.652 0 0 0-1.532-.311c-.455 0-.815.071-1.062.223-.248.152-.375.383-.375.71 0 .224.08.416.24.567.159.152.454.304.877.44l1.134.358c.574.184.99.44 1.237.767.247.327.367.702.367 1.117 0 .343-.072.655-.207.926-.144.272-.336.511-.583.703-.248.2-.543.343-.886.447-.36.111-.734.167-1.142.167zM21.698 16.207c-2.626 1.94-6.442 2.969-9.722 2.969-4.598 0-8.74-1.7-11.87-4.526-.247-.223-.024-.527.272-.351 3.384 1.963 7.559 3.153 11.877 3.153 2.914 0 6.114-.607 9.06-1.852.439-.2.814.287.383.607zM22.792 14.961c-.336-.43-2.22-.207-3.074-.103-.255.032-.295-.192-.063-.36 1.5-1.053 3.967-.75 4.254-.399.287.36-.08 2.826-1.485 4.007-.215.184-.423.088-.327-.151.32-.79 1.03-2.57.695-2.994z"/></g></g><g><animateMotion dur="44.2s" repeatCount="indefinite" rotate="0" calcMode="linear" keyTimes="0;1" keyPoints="1;0" begin="-33.15s"><mpath xlink:href="#orb3"/></animateMotion><circle r="23" fill="#4285F4" stroke="#ffffff" stroke-opacity="0.45" stroke-width="1.4"/><g transform="translate(-12.5,-12.5) scale(1.0417)" fill="#ffffff"><path d="M12.19 2.38a9.344 9.344 0 0 0-9.234 6.893c.053-.02-.055.013 0 0-3.875 2.551-3.922 8.11-.247 10.941l.006-.007-.007.03a6.717 6.717 0 0 0 4.077 1.356h5.173l.03.03h5.192c6.687.053 9.376-8.605 3.835-12.35a9.365 9.365 0 0 0-2.821-4.552l-.043.043.006-.05A9.344 9.344 0 0 0 12.19 2.38zm-.358 4.146c1.244-.04 2.518.368 3.486 1.15a5.186 5.186 0 0 1 1.862 4.078v.518c3.53-.07 3.53 5.262 0 5.193h-5.193l-.008.009v-.04H6.785a2.59 2.59 0 0 1-1.067-.23h.001a2.597 2.597 0 1 1 3.437-3.437l3.013-3.012A6.747 6.747 0 0 0 8.11 8.24c.018-.01.04-.026.054-.023a5.186 5.186 0 0 1 3.67-1.69z"/></g></g></g><g><g><animateMotion dur="38.2s" repeatCount="indefinite" rotate="0" calcMode="linear" keyTimes="0;1" keyPoints="0;1" begin="-0.00s"><mpath xlink:href="#orb4"/></animateMotion><circle r="23" fill="#4169E1" stroke="#ffffff" stroke-opacity="0.45" stroke-width="1.4"/><g transform="translate(-12.5,-12.5) scale(1.0417)" fill="#ffffff"><path d="M23.5594 14.7228a.5269.5269 0 0 0-.0563-.1191c-.139-.2632-.4768-.3418-1.0074-.2321-1.6533.3411-2.2935.1312-2.5256-.0191 1.342-2.0482 2.445-4.522 3.0411-6.8297.2714-1.0507.7982-3.5237.1222-4.7316a1.5641 1.5641 0 0 0-.1509-.235C21.6931.9086 19.8007.0248 17.5099.0005c-1.4947-.0158-2.7705.3461-3.1161.4794a9.449 9.449 0 0 0-.5159-.0816 8.044 8.044 0 0 0-1.3114-.1278c-1.1822-.0184-2.2038.2642-3.0498.8406-.8573-.3211-4.7888-1.645-7.2219.0788C.9359 2.1526.3086 3.8733.4302 6.3043c.0409.818.5069 3.334 1.2423 5.7436.4598 1.5065.9387 2.7019 1.4334 3.582.553.9942 1.1259 1.5933 1.7143 1.7895.4474.1491 1.1327.1441 1.8581-.7279.8012-.9635 1.5903-1.8258 1.9446-2.2069.4351.2355.9064.3625 1.39.3772a.0569.0569 0 0 0 .0004.0041 11.0312 11.0312 0 0 0-.2472.3054c-.3389.4302-.4094.5197-1.5002.7443-.3102.064-1.1344.2339-1.1464.8115-.0025.1224.0329.2309.0919.3268.2269.4231.9216.6097 1.015.6331 1.3345.3335 2.5044.092 3.3714-.6787-.017 2.231.0775 4.4174.3454 5.0874.2212.5529.7618 1.9045 2.4692 1.9043.2505 0 .5263-.0291.8296-.0941 1.7819-.3821 2.5557-1.1696 2.855-2.9059.1503-.8707.4016-2.8753.5388-4.1012.0169-.0703.0357-.1207.057-.1362.0007-.0005.0697-.0471.4272.0307a.3673.3673 0 0 0 .0443.0068l.2539.0223.0149.001c.8468.0384 1.9114-.1426 2.5312-.4308.6438-.2988 1.8057-1.0323 1.5951-1.6698zM2.371 11.8765c-.7435-2.4358-1.1779-4.8851-1.2123-5.5719-.1086-2.1714.4171-3.6829 1.5623-4.4927 1.8367-1.2986 4.8398-.5408 6.108-.13-.0032.0032-.0066.0061-.0098.0094-2.0238 2.044-1.9758 5.536-1.9708 5.7495-.0002.0823.0066.1989.0162.3593.0348.5873.0996 1.6804-.0735 2.9184-.1609 1.1504.1937 2.2764.9728 3.0892.0806.0841.1648.1631.2518.2374-.3468.3714-1.1004 1.1926-1.9025 2.1576-.5677.6825-.9597.5517-1.0886.5087-.3919-.1307-.813-.5871-1.2381-1.3223-.4796-.839-.9635-2.0317-1.4155-3.5126zm6.0072 5.0871c-.1711-.0428-.3271-.1132-.4322-.1772.0889-.0394.2374-.0902.4833-.1409 1.2833-.2641 1.4815-.4506 1.9143-1.0002.0992-.126.2116-.2687.3673-.4426a.3549.3549 0 0 0 .0737-.1298c.1708-.1513.2724-.1099.4369-.0417.156.0646.3078.26.3695.4752.0291.1016.0619.2945-.0452.4444-.9043 1.2658-2.2216 1.2494-3.1676 1.0128zm2.094-3.988-.0525.141c-.133.3566-.2567.6881-.3334 1.003-.6674-.0021-1.3168-.2872-1.8105-.8024-.6279-.6551-.9131-1.5664-.7825-2.5004.1828-1.3079.1153-2.4468.079-3.0586-.005-.0857-.0095-.1607-.0122-.2199.2957-.2621 1.6659-.9962 2.6429-.7724.4459.1022.7176.4057.8305.928.5846 2.7038.0774 3.8307-.3302 4.7363-.084.1866-.1633.3629-.2311.5454zm7.3637 4.5725c-.0169.1768-.0358.376-.0618.5959l-.146.4383a.3547.3547 0 0 0-.0182.1077c-.0059.4747-.054.6489-.115.8693-.0634.2292-.1353.4891-.1794 1.0575-.11 1.4143-.8782 2.2267-2.4172 2.5565-1.5155.3251-1.7843-.4968-2.0212-1.2217a6.5824 6.5824 0 0 0-.0769-.2266c-.2154-.5858-.1911-1.4119-.1574-2.5551.0165-.5612-.0249-1.9013-.3302-2.6462.0044-.2932.0106-.5909.019-.8918a.3529.3529 0 0 0-.0153-.1126 1.4927 1.4927 0 0 0-.0439-.208c-.1226-.4283-.4213-.7866-.7797-.9351-.1424-.059-.4038-.1672-.7178-.0869.067-.276.1831-.5875.309-.9249l.0529-.142c.0595-.16.134-.3257.213-.5012.4265-.9476 1.0106-2.2453.3766-5.1772-.2374-1.0981-1.0304-1.6343-2.2324-1.5098-.7207.0746-1.3799.3654-1.7088.5321a5.6716 5.6716 0 0 0-.1958.1041c.0918-1.1064.4386-3.1741 1.7357-4.4823a4.0306 4.0306 0 0 1 .3033-.276.3532.3532 0 0 0 .1447-.0644c.7524-.5706 1.6945-.8506 2.802-.8325.4091.0067.8017.0339 1.1742.081 1.939.3544 3.2439 1.4468 4.0359 2.3827.8143.9623 1.2552 1.9315 1.4312 2.4543-1.3232-.1346-2.2234.1268-2.6797.779-.9926 1.4189.543 4.1729 1.2811 5.4964.1353.2426.2522.4522.2889.5413.2403.5825.5515.9713.7787 1.2552.0696.087.1372.1714.1885.245-.4008.1155-1.1208.3825-1.0552 1.717-.0123.1563-.0423.4469-.0834.8148-.0461.2077-.0702.4603-.0994.7662zm.8905-1.6211c-.0405-.8316.2691-.9185.5967-1.0105a2.8566 2.8566 0 0 0 .135-.0406 1.202 1.202 0 0 0 .1342.103c.5703.3765 1.5823.4213 3.0068.1344-.2016.1769-.5189.3994-.9533.6011-.4098.1903-1.0957.333-1.7473.3636-.7197.0336-1.0859-.0807-1.1721-.151zm.5695-9.2712c-.0059.3508-.0542.6692-.1054 1.0017-.055.3576-.112.7274-.1264 1.1762-.0142.4368.0404.8909.0932 1.3301.1066.887.216 1.8003-.2075 2.7014a3.5272 3.5272 0 0 1-.1876-.3856c-.0527-.1276-.1669-.3326-.3251-.6162-.6156-1.1041-2.0574-3.6896-1.3193-4.7446.3795-.5427 1.3408-.5661 2.1781-.463zm.2284 7.0137a12.3762 12.3762 0 0 0-.0853-.1074l-.0355-.0444c.7262-1.1995.5842-2.3862.4578-3.4385-.0519-.4318-.1009-.8396-.0885-1.2226.0129-.4061.0666-.7543.1185-1.0911.0639-.415.1288-.8443.1109-1.3505.0134-.0531.0188-.1158.0118-.1902-.0457-.4855-.5999-1.938-1.7294-3.253-.6076-.7073-1.4896-1.4972-2.6889-2.0395.5251-.1066 1.2328-.2035 2.0244-.1859 2.0515.0456 3.6746.8135 4.8242 2.2824a.908.908 0 0 1 .0667.1002c.7231 1.3556-.2762 6.2751-2.9867 10.5405zm-8.8166-6.1162c-.025.1794-.3089.4225-.6211.4225a.5821.5821 0 0 1-.0809-.0056c-.1873-.026-.3765-.144-.5059-.3156-.0458-.0605-.1203-.178-.1055-.2844.0055-.0401.0261-.0985.0925-.1488.1182-.0894.3518-.1226.6096-.0867.3163.0441.6426.1938.6113.4186zm7.9305-.4114c.0111.0792-.049.201-.1531.3102-.0683.0717-.212.1961-.4079.2232a.5456.5456 0 0 1-.075.0052c-.2935 0-.5414-.2344-.5607-.3717-.024-.1765.2641-.3106.5611-.352.297-.0414.6111.0088.6356.1851z"/></g></g><g><animateMotion dur="38.2s" repeatCount="indefinite" rotate="0" calcMode="linear" keyTimes="0;1" keyPoints="0;1" begin="-9.55s"><mpath xlink:href="#orb4"/></animateMotion><circle r="23" fill="#47A248" stroke="#ffffff" stroke-opacity="0.45" stroke-width="1.4"/><g transform="translate(-12.5,-12.5) scale(1.0417)" fill="#ffffff"><path d="M17.193 9.555c-1.264-5.58-4.252-7.414-4.573-8.115-.28-.394-.53-.954-.735-1.44-.036.495-.055.685-.523 1.184-.723.566-4.438 3.682-4.74 10.02-.282 5.912 4.27 9.435 4.888 9.884l.07.05A73.49 73.49 0 0111.91 24h.481c.114-1.032.284-2.056.51-3.07.417-.296.604-.463.85-.693a11.342 11.342 0 003.639-8.464c.01-.814-.103-1.662-.197-2.218zm-5.336 8.195s0-8.291.275-8.29c.213 0 .49 10.695.49 10.695-.381-.045-.765-1.76-.765-2.405z"/></g></g><g><animateMotion dur="38.2s" repeatCount="indefinite" rotate="0" calcMode="linear" keyTimes="0;1" keyPoints="0;1" begin="-19.10s"><mpath xlink:href="#orb4"/></animateMotion><circle r="23" fill="#FF4438" stroke="#ffffff" stroke-opacity="0.45" stroke-width="1.4"/><g transform="translate(-12.5,-12.5) scale(1.0417)" fill="#ffffff"><path d="M22.71 13.145c-1.66 2.092-3.452 4.483-7.038 4.483-3.203 0-4.397-2.825-4.48-5.12.701 1.484 2.073 2.685 4.214 2.63 4.117-.133 6.94-3.852 6.94-7.239 0-4.05-3.022-6.972-8.268-6.972-3.752 0-8.4 1.428-11.455 3.685C2.59 6.937 3.885 9.958 4.35 9.626c2.648-1.904 4.748-3.13 6.784-3.744C8.12 9.244.886 17.05 0 18.425c.1 1.261 1.66 4.648 2.424 4.648.232 0 .431-.133.664-.365a100.49 100.49 0 0 0 5.54-6.765c.222 3.104 1.748 6.898 6.014 6.898 3.819 0 7.604-2.756 9.33-8.965.2-.764-.73-1.361-1.261-.73zm-4.349-5.013c0 1.959-1.926 2.922-3.685 2.922-.941 0-1.664-.247-2.235-.568 1.051-1.592 2.092-3.225 3.21-4.973 1.972.334 2.71 1.43 2.71 2.619z"/></g></g><g><animateMotion dur="38.2s" repeatCount="indefinite" rotate="0" calcMode="linear" keyTimes="0;1" keyPoints="0;1" begin="-28.65s"><mpath xlink:href="#orb4"/></animateMotion><circle r="23" fill="#4581C3" stroke="#ffffff" stroke-opacity="0.45" stroke-width="1.4"/><g transform="translate(-12.5,-12.5) scale(1.0417)" fill="#ffffff"><path d="M9.629 13.227c-.593 0-1.139.2-1.58.533l-2.892-1.976a2.61 2.61 0 0 0 .101-.711 2.633 2.633 0 0 0-2.629-2.629A2.632 2.632 0 0 0 0 11.073a2.632 2.632 0 0 0 2.629 2.629c.593 0 1.139-.2 1.579-.533L7.1 15.145c-.063.226-.1.465-.1.711 0 .247.037.484.1.711l-2.892 1.976a2.608 2.608 0 0 0-1.579-.533A2.632 2.632 0 0 0 0 20.639a2.632 2.632 0 0 0 2.629 2.629 2.632 2.632 0 0 0 2.629-2.629c0-.247-.037-.485-.101-.711l2.892-1.976c.441.333.987.533 1.58.533a2.633 2.633 0 0 0 2.629-2.629c0-1.45-1.18-2.629-2.629-2.629ZM16.112.732c-4.72 0-7.888 2.748-7.888 8.082v3.802a3.525 3.525 0 0 1 3.071.008v-3.81c0-3.459 1.907-5.237 4.817-5.237s4.817 1.778 4.817 5.237v8.309H24V8.814C24 3.448 20.832.732 16.112.732Z"/></g></g></g><g><g><animateMotion dur="50.8s" repeatCount="indefinite" rotate="0" calcMode="linear" keyTimes="0;1" keyPoints="1;0" begin="-0.00s"><mpath xlink:href="#orb5"/></animateMotion><circle r="23" fill="#7EBC6F" stroke="#ffffff" stroke-opacity="0.45" stroke-width="1.4"/><g transform="translate(-12.5,-12.5) scale(1.0417)" fill="#000000"><path d="M2.672 23.969c-.352-.089-.534-.234-1.471-1.168C.085 21.688.014 21.579.018 20.999c0-.645-.196-.414 3.368-3.986 3.6-3.608 3.415-3.451 4.064-3.449.302 0 .378.016.62.14l.277.14 1.744-1.744-.218-.343c-.425-.662-.825-1.629-1.006-2.429a7.657 7.657 0 0 1 1.479-6.44c2.49-3.12 6.959-3.812 10.26-1.588 1.812 1.218 2.99 3.099 3.328 5.314.07.467.07 1.579 0 2.074a7.554 7.554 0 0 1-2.205 4.402 6.712 6.712 0 0 1-1.943 1.401c-.959.483-1.775.71-2.881.803-1.573.131-3.32-.305-4.656-1.163l-.343-.218-1.744 1.744.14.28c.125.241.14.316.14.617.003.651.156.467-3.426 4.049-2.761 2.756-3.186 3.164-3.398 3.261-.271.125-.69.171-.945.106zM17.485 13.95a6.425 6.425 0 0 0 4.603-3.51c1.391-2.899.455-6.306-2.227-8.108-.638-.43-1.529-.794-2.367-.962-.581-.117-1.809-.104-2.414.025a6.593 6.593 0 0 0-2.452 1.064c-.444.315-1.177 1.048-1.487 1.487a6.384 6.384 0 0 0 .38 7.907 6.406 6.406 0 0 0 3.901 2.136c.509.078 1.542.058 2.065-.037zm-3.738 7.376a80.97 80.97 0 0 1-2.196-.651c-.025-.028 1.207-4.396 1.257-4.449.023-.026 4.242 1.152 4.414 1.236.062.026-.003.288-.525 2.102a398.513 398.513 0 0 0-.635 2.236c-.025.087-.069.156-.097.156-.028-.003-1.028-.287-2.219-.631zm2.912.524c0-.053 1.227-4.333 1.246-4.347.047-.034 4.324-1.23 4.341-1.211.019.019-1.199 4.337-1.23 4.36-.02.019-4.126 1.191-4.259 1.218-.054.011-.098 0-.098-.019zm-7.105-1.911c.846-.852 1.599-1.627 1.674-1.728.171-.218.405-.732.472-1.015.026-.118.053-.352.058-.522l.011-.307.182-.051c.103-.028.193-.044.202-.034.023.025-1.207 4.321-1.246 4.36-.02.016-.677.213-1.464.436l-1.425.405 1.537-1.542zm8.289-3.06a1.371 1.371 0 0 1-.059-.187l-.044-.156.156-.028c1.339-.227 2.776-.856 3.908-1.713.16-.125.252-.171.265-.134.054.165.272.95.265.959-.034.034-4.48 1.282-4.492 1.261zm-15.083-1.3c-.05-.039-1.179-3.866-1.264-4.29-.016-.084.146-.044 2.174.536 2.121.604 2.192.629 2.222.74.028.098.011.129-.125.223-.084.059-.769.724-1.523 1.479a63.877 63.877 0 0 1-1.39 1.367c-.016 0-.056-.025-.093-.054zm.821-4.378c-1.188-.343-2.164-.623-2.167-.626-.016-.012 1.261-4.433 1.285-4.46.022-.022 4.422 1.211 4.469 1.252.009.009-.269 1.017-.618 2.239-.576 2.02-.643 2.224-.723 2.22-.05-.003-1.059-.285-2.247-.626zm2.959.538c.012-.031.212-.723.444-1.534l.42-1.476.056.321c.093.556.265 1.188.464 1.741.106.296.187.539.181.545-.008.006-.332.101-.719.212-.389.109-.741.21-.786.224-.058.016-.075.006-.059-.034zM4.905 6.112c-1.187-.339-2.167-.635-2.18-.654-.04-.062-1.246-4.321-1.23-4.338.026-.025 4.31 1.204 4.351 1.246.047.051 1.28 4.379 1.246 4.376L4.91 6.113zm2.148-1.713l-.519-1.806-.078-.28 1.693-.483c.934-.265 1.724-.495 1.76-.508.034-.016-.083.14-.26.336A8.729 8.729 0 0 0 7.69 5.23a4.348 4.348 0 0 0-.132.561c0 .293-.115-.025-.505-1.39z"/></g></g><g><animateMotion dur="50.8s" repeatCount="indefinite" rotate="0" calcMode="linear" keyTimes="0;1" keyPoints="1;0" begin="-12.70s"><mpath xlink:href="#orb5"/></animateMotion><circle r="23" fill="#199900" stroke="#ffffff" stroke-opacity="0.45" stroke-width="1.4"/><g transform="translate(-12.5,-12.5) scale(1.0417)" fill="#ffffff"><path d="M17.69 0c-.355.574-8.432 4.74-10.856 8.649-2.424 3.91-3.116 6.988-2.237 9.882.879 2.893 2.559 2.763 3.516 3.717.958.954 2.257 2.113 4.332 1.645 2.717-.613 5.335-2.426 6.638-7.508 1.302-5.082.448-9.533-.103-11.99A35.395 35.395 0 0 0 17.69 0zm-.138.858l-9.22 21.585-.574-.577Z"/></g></g><g><animateMotion dur="50.8s" repeatCount="indefinite" rotate="0" calcMode="linear" keyTimes="0;1" keyPoints="1;0" begin="-25.40s"><mpath xlink:href="#orb5"/></animateMotion><circle r="23" fill="#589632" stroke="#ffffff" stroke-opacity="0.45" stroke-width="1.4"/><g transform="translate(-12.5,-12.5) scale(1.0417)" fill="#ffffff"><path d="M12.879 13.006v3.65l-3.004-3.048v-3.495h3.582l2.852 2.893h-3.43zm10.886 7.606V24h-3.654l-5.73-5.9v-3.55h3.354l6.03 6.062zm-10.828-1.448l3.372 3.371c-1.309.442-2.557.726-4.325.726C5.136 23.26 0 18.243 0 11.565 0 4.92 5.136 0 11.984 0 18.864 0 24 4.952 24 11.565c0 2.12-.523 4.076-1.457 5.759l-3.625-3.725a8.393 8.393 0 0 0 .24-2.005c0-4.291-3.148-7.527-7.1-7.527-3.954 0-7.248 3.236-7.248 7.527s3.33 7.6 7.247 7.6c.548 0 .661.017.88-.03z"/></g></g><g><animateMotion dur="50.8s" repeatCount="indefinite" rotate="0" calcMode="linear" keyTimes="0;1" keyPoints="1;0" begin="-38.10s"><mpath xlink:href="#orb5"/></animateMotion><circle r="23" fill="#4285F4" stroke="#ffffff" stroke-opacity="0.45" stroke-width="1.4"/><g transform="translate(-12.5,-12.5) scale(1.0417)" fill="#ffffff"><path d="M19.527 4.799c1.212 2.608.937 5.678-.405 8.173-1.101 2.047-2.744 3.74-4.098 5.614-.619.858-1.244 1.75-1.669 2.727-.141.325-.263.658-.383.992-.121.333-.224.673-.34 1.008-.109.314-.236.684-.627.687h-.007c-.466-.001-.579-.53-.695-.887-.284-.874-.581-1.713-1.019-2.525-.51-.944-1.145-1.817-1.79-2.671L19.527 4.799zM8.545 7.705l-3.959 4.707c.724 1.54 1.821 2.863 2.871 4.18.247.31.494.622.737.936l4.984-5.925-.029.01c-1.741.601-3.691-.291-4.392-1.987a3.377 3.377 0 0 1-.209-.716c-.063-.437-.077-.761-.004-1.198l.001-.007zM5.492 3.149l-.003.004c-1.947 2.466-2.281 5.88-1.117 8.77l4.785-5.689-.058-.05-3.607-3.035zM14.661.436l-3.838 4.563a.295.295 0 0 1 .027-.01c1.6-.551 3.403.15 4.22 1.626.176.319.323.683.377 1.045.068.446.085.773.012 1.22l-.003.016 3.836-4.561A8.382 8.382 0 0 0 14.67.439l-.009-.003zM9.466 5.868L14.162.285l-.047-.012A8.31 8.31 0 0 0 11.986 0a8.439 8.439 0 0 0-6.169 2.766l-.016.018 3.665 3.084z"/></g></g></g><circle cx="575" cy="408" r="78" fill="url(#cg)"/><circle cx="575" cy="408" r="30" fill="none" stroke="#fbbf24" stroke-width="2"><animate attributeName="r" values="30;66;30" dur="3.4s" begin="-0s" repeatCount="indefinite"/><animate attributeName="stroke-opacity" values="0.7;0;0.7" dur="3.4s" begin="-0s" repeatCount="indefinite"/></circle><circle cx="575" cy="408" r="30" fill="none" stroke="#fbbf24" stroke-width="2"><animate attributeName="r" values="30;66;30" dur="3.4s" begin="-1.4s" repeatCount="indefinite"/><animate attributeName="stroke-opacity" values="0.7;0;0.7" dur="3.4s" begin="-1.4s" repeatCount="indefinite"/></circle><circle cx="575" cy="408" r="32" fill="url(#core)" stroke="#fff" stroke-opacity="0.4" stroke-width="1.5"/><text x="575" y="416" text-anchor="middle" font-size="26" font-weight="800" fill="#1f2937">AR</text><circle cx="721.6" cy="461.4" r="4.5" fill="#60a5fa"/><text x="736.6" y="471.8" text-anchor="middle" font-size="18" font-weight="700" letter-spacing="1.5" fill="#60a5fa">LANGUAGES</text><circle cx="621.6" cy="627.5" r="4.5" fill="#c084fc"/><text x="625.0" y="648.1" text-anchor="middle" font-size="18" font-weight="700" letter-spacing="1.5" fill="#c084fc">ML &amp; AI</text><circle cx="413.8" cy="593.5" r="4.5" fill="#34d399"/><text x="403.3" y="610.6" text-anchor="middle" font-size="18" font-weight="700" letter-spacing="1.5" fill="#34d399">FRAMEWORKS</text><circle cx="248.3" cy="453.9" r="4.5" fill="#fbbf24"/><text x="232.4" y="461.1" text-anchor="middle" font-size="18" font-weight="700" letter-spacing="1.5" fill="#fbbf24">CLOUD &amp; DEVOPS</text><circle cx="403.4" cy="188.3" r="4.5" fill="#f472b6"/><text x="393.5" y="180.7" text-anchor="middle" font-size="18" font-weight="700" letter-spacing="1.5" fill="#f472b6">DATA</text><circle cx="774.1" cy="123.6" r="4.5" fill="#2dd4bf"/><text x="783.3" y="115.5" text-anchor="middle" font-size="18" font-weight="700" letter-spacing="1.5" fill="#2dd4bf">GEOSPATIAL</text></svg>