<svg width="1200" height="306" viewBox="0 0 1200 306" xmlns="http://www.w3.org/2000/svg" font-family="-apple-system, BlinkMacSystemFont, 'Segoe UI', Roboto, Helvetica, Arial, sans-serif"><defs><linearGradient id="fade" x1="0" y1="0" x2="1" y2="0"><stop offset="0" stop-color="#fff" stop-opacity="0"/><stop offset="0.07" stop-color="#fff" stop-opacity="1"/><stop offset="0.93" stop-color="#fff" stop-opacity="1"/><stop offset="1" stop-color="#fff" stop-opacity="0"/></linearGradient><mask id="m"><rect width="1200" height="306" fill="url(#fade)"/></mask></defs><g mask="url(#m)"><g transform="translate(0,12)"><g><animateTransform attributeName="transform" type="translate" from="0 0" to="-1527 0" dur="40s" repeatCount="indefinite"/><g><rect x="0" y="0" width="132" height="54" rx="27" fill="#3776AB"/><text x="66" y="35" fill="#fff" font-size="24" font-weight="700" text-anchor="middle">Python</text><rect x="150" y="0" width="186" height="54" rx="27" fill="#3178C6"/><text x="243" y="35" fill="#fff" font-size="24" font-weight="700" text-anchor="middle">TypeScript</text><rect x="354" y="0" width="186" height="54" rx="27" fill="#F7DF1E"/><text x="447" y="35" fill="#000" font-size="24" font-weight="700" text-anchor="middle">JavaScript</text><rect x="558" y="0" width="92" height="54" rx="27" fill="#336791"/><text x="604" y="35" fill="#fff" font-size="24" font-weight="700" text-anchor="middle">SQL</text><rect x="668" y="0" width="92" height="54" rx="27" fill="#00599C"/><text x="714" y="35" fill="#fff" font-size="24" font-weight="700" text-anchor="middle">C++</text><rect x="778" y="0" width="105" height="54" rx="27" fill="#000000"/><text x="830" y="35" fill="#fff" font-size="24" font-weight="700" text-anchor="middle">Rust</text><rect x="901" y="0" width="145" height="54" rx="27" fill="#000000"/><text x="974" y="35" fill="#fff" font-size="24" font-weight="700" text-anchor="middle">Next.js</text><rect x="1064" y="0" width="119" height="54" rx="27" fill="#61DAFB"/><text x="1124" y="35" fill="#000" font-size="24" font-weight="700" text-anchor="middle">React</text><rect x="1201" y="0" width="145" height="54" rx="27" fill="#339933"/><text x="1274" y="35" fill="#fff" font-size="24" font-weight="700" text-anchor="middle">Node.js</text><rect x="1364" y="0" width="145" height="54" rx="27" fill="#009688"/><text x="1436" y="35" fill="#fff" font-size="24" font-weight="700" text-anchor="middle">FastAPI</text></g><g transform="translate(1527,0)"><rect x="0" y="0" width="132" height="54" rx="27" fill="#3776AB"/><text x="66" y="35" fill="#fff" font-size="24" font-weight="700" text-anchor="middle">Python</text><rect x="150" y="0" width="186" height="54" rx="27" fill="#3178C6"/><text x="243" y="35" fill="#fff" font-size="24" font-weight="700" text-anchor="middle">TypeScript</text><rect x="354" y="0" width="186" height="54" rx="27" fill="#F7DF1E"/><text x="447" y="35" fill="#000" font-size="24" font-weight="700" text-anchor="middle">JavaScript</text><rect x="558" y="0" width="92" height="54" rx="27" fill="#336791"/><text x="604" y="35" fill="#fff" font-size="24" font-weight="700" text-anchor="middle">SQL</text><rect x="668" y="0" width="92" height="54" rx="27" fill="#00599C"/><text x="714" y="35" fill="#fff" font-size="24" font-weight="700" text-anchor="middle">C++</text><rect x="778" y="0" width="105" height="54" rx="27" fill="#000000"/><text x="830" y="35" fill="#fff" font-size="24" font-weight="700" text-anchor="middle">Rust</text><rect x="901" y="0" width="145" height="54" rx="27" fill="#000000"/><text x="974" y="35" fill="#fff" font-size="24" font-weight="700" text-anchor="middle">Next.js</text><rect x="1064" y="0" width="119" height="54" rx="27" fill="#61DAFB"/><text x="1124" y="35" fill="#000" font-size="24" font-weight="700" text-anchor="middle">React</text><rect x="1201" y="0" width="145" height="54" rx="27" fill="#339933"/><text x="1274" y="35" fill="#fff" font-size="24" font-weight="700" text-anchor="middle">Node.js</text><rect x="1364" y="0" width="145" height="54" rx="27" fill="#009688"/><text x="1436" y="35" fill="#fff" font-size="24" font-weight="700" text-anchor="middle">FastAPI</text></g></g></g><g transform="translate(0,88)"><g><animateTransform attributeName="transform" type="translate" from="-1780 0" to="0 0" dur="46s" repeatCount="indefinite"/><g><rect x="0" y="0" width="145" height="54" rx="27" fill="#EE4C2C"/><text x="72" y="35" fill="#fff" font-size="24" font-weight="700" text-anchor="middle">PyTorch</text><rect x="163" y="0" width="172" height="54" rx="27" fill="#1C3C3C"/><text x="249" y="35" fill="#fff" font-size="24" font-weight="700" text-anchor="middle">LangChain</text><rect x="353" y="0" width="172" height="54" rx="27" fill="#1C3C3C"/><text x="439" y="35" fill="#fff" font-size="24" font-weight="700" text-anchor="middle">LangGraph</text><rect x="543" y="0" width="186" height="54" rx="27" fill="#6E56CF"/><text x="636" y="35" fill="#fff" font-size="24" font-weight="700" text-anchor="middle">LLM Agents</text><rect x="747" y="0" width="92" height="54" rx="27" fill="#6E56CF"/><text x="793" y="35" fill="#fff" font-size="24" font-weight="700" text-anchor="middle">RAG</text><rect x="857" y="0" width="132" height="54" rx="27" fill="#412991"/><text x="923" y="35" fill="#fff" font-size="24" font-weight="700" text-anchor="middle">OpenAI</text><rect x="1007" y="0" width="212" height="54" rx="27" fill="#FFD21E"/><text x="1113" y="35" fill="#000" font-size="24" font-weight="700" text-anchor="middle">Hugging Face</text><rect x="1237" y="0" width="212" height="54" rx="27" fill="#F7931E"/><text x="1343" y="35" fill="#fff" font-size="24" font-weight="700" text-anchor="middle">scikit-learn</text><rect x="1467" y="0" width="145" height="54" rx="27" fill="#E25A1C"/><text x="1540" y="35" fill="#fff" font-size="24" font-weight="700" text-anchor="middle">PySpark</text><rect x="1630" y="0" width="132" height="54" rx="27" fill="#150458"/><text x="1696" y="35" fill="#fff" font-size="24" font-weight="700" text-anchor="middle">Pandas</text></g><g transform="translate(1780,0)"><rect x="0" y="0" width="145" height="54" rx="27" fill="#EE4C2C"/><text x="72" y="35" fill="#fff" font-size="24" font-weight="700" text-anchor="middle">PyTorch</text><rect x="163" y="0" width="172" height="54" rx="27" fill="#1C3C3C"/><text x="249" y="35" fill="#fff" font-size="24" font-weight="700" text-anchor="middle">LangChain</text><rect x="353" y="0" width="172" height="54" rx="27" fill="#1C3C3C"/><text x="439" y="35" fill="#fff" font-size="24" font-weight="700" text-anchor="middle">LangGraph</text><rect x="543" y="0" width="186" height="54" rx="27" fill="#6E56CF"/><text x="636" y="35" fill="#fff" font-size="24" font-weight="700" text-anchor="middle">LLM Agents</text><rect x="747" y="0" width="92" height="54" rx="27" fill="#6E56CF"/><text x="793" y="35" fill="#fff" font-size="24" font-weight="700" text-anchor="middle">RAG</text><rect x="857" y="0" width="132" height="54" rx="27" fill="#412991"/><text x="923" y="35" fill="#fff" font-size="24" font-weight="700" text-anchor="middle">OpenAI</text><rect x="1007" y="0" width="212" height="54" rx="27" fill="#FFD21E"/><text x="1113" y="35" fill="#000" font-size="24" font-weight="700" text-anchor="middle">Hugging Face</text><rect x="1237" y="0" width="212" height="54" rx="27" fill="#F7931E"/><text x="1343" y="35" fill="#fff" font-size="24" font-weight="700" text-anchor="middle">scikit-learn</text><rect x="1467" y="0" width="145" height="54" rx="27" fill="#E25A1C"/><text x="1540" y="35" fill="#fff" font-size="24" font-weight="700" text-anchor="middle">PySpark</text><rect x="1630" y="0" width="132" height="54" rx="27" fill="#150458"/><text x="1696" y="35" fill="#fff" font-size="24" font-weight="700" text-anchor="middle">Pandas</text></g></g></g><g transform="translate(0,164)"><g><animateTransform attributeName="transform" type="translate" from="0 0" to="-1582 0" dur="43s" repeatCount="indefinite"/><g><rect x="0" y="0" width="186" height="54" rx="27" fill="#4169E1"/><text x="93" y="35" fill="#fff" font-size="24" font-weight="700" text-anchor="middle">PostgreSQL</text><rect x="204" y="0" width="145" height="54" rx="27" fill="#47A248"/><text x="276" y="35" fill="#fff" font-size="24" font-weight="700" text-anchor="middle">MongoDB</text><rect x="367" y="0" width="119" height="54" rx="27" fill="#DC382D"/><text x="426" y="35" fill="#fff" font-size="24" font-weight="700" text-anchor="middle">Redis</text><rect x="504" y="0" width="119" height="54" rx="27" fill="#4581C3"/><text x="564" y="35" fill="#fff" font-size="24" font-weight="700" text-anchor="middle">Neo4j</text><rect x="641" y="0" width="159" height="54" rx="27" fill="#669DF6"/><text x="720" y="35" fill="#fff" font-size="24" font-weight="700" text-anchor="middle">BigQuery</text><rect x="818" y="0" width="92" height="54" rx="27" fill="#232F3E"/><text x="864" y="35" fill="#fff" font-size="24" font-weight="700" text-anchor="middle">AWS</text><rect x="928" y="0" width="92" height="54" rx="27" fill="#4285F4"/><text x="974" y="35" fill="#fff" font-size="24" font-weight="700" text-anchor="middle">GCP</text><rect x="1038" y="0" width="132" height="54" rx="27" fill="#2496ED"/><text x="1104" y="35" fill="#fff" font-size="24" font-weight="700" text-anchor="middle">Docker</text><rect x="1188" y="0" width="186" height="54" rx="27" fill="#326CE5"/><text x="1281" y="35" fill="#fff" font-size="24" font-weight="700" text-anchor="middle">Kubernetes</text><rect x="1392" y="0" width="172" height="54" rx="27" fill="#844FBA"/><text x="1478" y="35" fill="#fff" font-size="24" font-weight="700" text-anchor="middle">Terraform</text></g><g transform="translate(1582,0)"><rect x="0" y="0" width="186" height="54" rx="27" fill="#4169E1"/><text x="93" y="35" fill="#fff" font-size="24" font-weight="700" text-anchor="middle">PostgreSQL</text><rect x="204" y="0" width="145" height="54" rx="27" fill="#47A248"/><text x="276" y="35" fill="#fff" font-size="24" font-weight="700" text-anchor="middle">MongoDB</text><rect x="367" y="0" width="119" height="54" rx="27" fill="#DC382D"/><text x="426" y="35" fill="#fff" font-size="24" font-weight="700" text-anchor="middle">Redis</text><rect x="504" y="0" width="119" height="54" rx="27" fill="#4581C3"/><text x="564" y="35" fill="#fff" font-size="24" font-weight="700" text-anchor="middle">Neo4j</text><rect x="641" y="0" width="159" height="54" rx="27" fill="#669DF6"/><text x="720" y="35" fill="#fff" font-size="24" font-weight="700" text-anchor="middle">BigQuery</text><rect x="818" y="0" width="92" height="54" rx="27" fill="#232F3E"/><text x="864" y="35" fill="#fff" font-size="24" font-weight="700" text-anchor="middle">AWS</text><rect x="928" y="0" width="92" height="54" rx="27" fill="#4285F4"/><text x="974" y="35" fill="#fff" font-size="24" font-weight="700" text-anchor="middle">GCP</text><rect x="1038" y="0" width="132" height="54" rx="27" fill="#2496ED"/><text x="1104" y="35" fill="#fff" font-size="24" font-weight="700" text-anchor="middle">Docker</text><rect x="1188" y="0" width="186" height="54" rx="27" fill="#326CE5"/><text x="1281" y="35" fill="#fff" font-size="24" font-weight="700" text-anchor="middle">Kubernetes</text><rect x="1392" y="0" width="172" height="54" rx="27" fill="#844FBA"/><text x="1478" y="35" fill="#fff" font-size="24" font-weight="700" text-anchor="middle">Terraform</text></g></g></g><g transform="translate(0,240)"><g><animateTransform attributeName="transform" type="translate" from="-1607 0" to="0 0" dur="49s" repeatCount="indefinite"/><g><rect x="0" y="0" width="145" height="54" rx="27" fill="#4169E1"/><text x="72" y="35" fill="#fff" font-size="24" font-weight="700" text-anchor="middle">PostGIS</text><rect x="163" y="0" width="119" height="54" rx="27" fill="#7EBC6F"/><text x="222" y="35" fill="#fff" font-size="24" font-weight="700" text-anchor="middle">OSMnx</text><rect x="300" y="0" width="172" height="54" rx="27" fill="#139C5A"/><text x="386" y="35" fill="#fff" font-size="24" font-weight="700" text-anchor="middle">GeoPandas</text><rect x="490" y="0" width="145" height="54" rx="27" fill="#2E7D32"/><text x="562" y="35" fill="#fff" font-size="24" font-weight="700" text-anchor="middle">Shapely</text><rect x="653" y="0" width="145" height="54" rx="27" fill="#199900"/><text x="726" y="35" fill="#fff" font-size="24" font-weight="700" text-anchor="middle">Leaflet</text><rect x="816" y="0" width="199" height="54" rx="27" fill="#396CB2"/><text x="916" y="35" fill="#fff" font-size="24" font-weight="700" text-anchor="middle">MapLibre GL</text><rect x="1033" y="0" width="92" height="54" rx="27" fill="#F05032"/><text x="1079" y="35" fill="#fff" font-size="24" font-weight="700" text-anchor="middle">Git</text><rect x="1143" y="0" width="159" height="54" rx="27" fill="#06B6D4"/><text x="1222" y="35" fill="#fff" font-size="24" font-weight="700" text-anchor="middle">Tailwind</text><rect x="1320" y="0" width="132" height="54" rx="27" fill="#2496ED"/><text x="1386" y="35" fill="#fff" font-size="24" font-weight="700" text-anchor="middle">Docker</text><rect x="1470" y="0" width="119" height="54" rx="27" fill="#2088FF"/><text x="1530" y="35" fill="#fff" font-size="24" font-weight="700" text-anchor="middle">CI/CD</text></g><g transform="translate(1607,0)"><rect x="0" y="0" width="145" height="54" rx="27" fill="#4169E1"/><text x="72" y="35" fill="#fff" font-size="24" font-weight="700" text-anchor="middle">PostGIS</text><rect x="163" y="0" width="119" height="54" rx="27" fill="#7EBC6F"/><text x="222" y="35" fill="#fff" font-size="24" font-weight="700" text-anchor="middle">OSMnx</text><rect x="300" y="0" width="172" height="54" rx="27" fill="#139C5A"/><text x="386" y="35" fill="#fff" font-size="24" font-weight="700" text-anchor="middle">GeoPandas</text><rect x="490" y="0" width="145" height="54" rx="27" fill="#2E7D32"/><text x="562" y="35" fill="#fff" font-size="24" font-weight="700" text-anchor="middle">Shapely</text><rect x="653" y="0" width="145" height="54" rx="27" fill="#199900"/><text x="726" y="35" fill="#fff" font-size="24" font-weight="700" text-anchor="middle">Leaflet</text><rect x="816" y="0" width="199" height="54" rx="27" fill="#396CB2"/><text x="916" y="35" fill="#fff" font-size="24" font-weight="700" text-anchor="middle">MapLibre GL</text><rect x="1033" y="0" width="92" height="54" rx="27" fill="#F05032"/><text x="1079" y="35" fill="#fff" font-size="24" font-weight="700" text-anchor="middle">Git</text><rect x="1143" y="0" width="159" height="54" rx="27" fill="#06B6D4"/><text x="1222" y="35" fill="#fff" font-size="24" font-weight="700" text-anchor="middle">Tailwind</text><rect x="1320" y="0" width="132" height="54" rx="27" fill="#2496ED"/><text x="1386" y="35" fill="#fff" font-size="24" font-weight="700" text-anchor="middle">Docker</text><rect x="1470" y="0" width="119" height="54" rx="27" fill="#2088FF"/><text x="1530" y="35" fill="#fff" font-size="24" font-weight="700" text-anchor="middle">CI/CD</text></g></g></g></g></svg>